<svg xmlns="http://www.w3.org/2000/svg" width="750" height="789" viewBox="0 0 750 789">
<g>
<path d="M 0.00 0.00 L 750.00 0.00 L 750.00 789.00 L 0.00 789.00 ZM 379.33 436.94 C390.09,438.34 411.93,438.09 421.26,436.46 C443.25,432.62 456.54,426.08 471.73,411.65 C480.36,403.46 487.35,394.83 491.90,386.75 C493.69,383.59 495.55,381.00 496.04,381.00 C497.28,381.00 499.00,384.45 499.00,386.93 C499.00,388.25 499.64,388.99 500.75,388.96 C506.46,388.85 567.23,373.10 569.36,371.18 C570.38,370.25 575.78,363.42 581.35,356.00 C586.92,348.58 594.75,338.31 598.74,333.19 C602.73,328.06 606.00,323.62 606.00,323.32 C606.00,323.02 603.61,320.19 600.70,317.04 C590.78,306.33 587.61,291.51 592.04,276.59 C593.38,272.07 593.94,268.58 593.41,268.09 C590.70,265.64 567.76,251.00 566.62,251.00 C565.88,251.00 564.11,251.91 562.69,253.03 C549.95,263.05 529.15,263.66 513.95,254.46 C501.88,247.15 492.98,234.69 489.47,220.18 C487.80,213.29 487.79,212.27 489.31,203.18 L 490.94 193.50 L 488.63 191.50 C487.36,190.40 482.84,187.02 478.60,184.00 C474.35,180.98 469.92,177.70 468.75,176.72 C464.90,173.50 462.22,173.50 457.69,176.74 C443.07,187.18 430.55,188.32 416.54,180.49 C413.11,178.57 409.66,177.00 408.86,177.00 C408.06,177.00 398.94,188.28 388.58,202.08 C370.82,225.73 369.60,227.12 367.13,226.49 C353.28,222.98 343.08,221.70 325.50,221.28 C309.32,220.89 305.09,221.12 297.00,222.78 C277.29,226.84 263.95,234.09 250.96,247.78 C241.05,258.22 234.85,269.22 230.81,283.50 C227.44,295.43 227.70,314.01 231.42,326.50 C242.23,362.85 274.05,396.29 318.47,417.97 C337.34,427.18 360.98,434.55 379.33,436.94 ZM 303.37 660.16 L 307.24 662.96 L 311.78 658.96 C314.27,656.77 319.27,653.51 322.89,651.73 C328.94,648.76 330.21,648.50 338.98,648.56 C346.25,648.60 350.04,649.16 355.00,650.91 L 361.50 653.20 L 364.23 649.85 C365.74,648.01 373.34,637.96 381.12,627.52 C388.90,617.08 397.21,606.06 399.60,603.02 C401.98,599.98 404.78,596.38 405.82,595.00 C406.85,593.62 418.87,577.65 432.51,559.50 C446.16,541.35 459.95,523.09 463.16,518.91 C466.37,514.74 469.00,511.03 469.00,510.66 C469.00,510.30 461.21,510.00 451.70,510.00 C439.58,510.00 434.04,509.64 433.20,508.80 C430.88,506.48 432.04,501.77 437.31,492.17 C440.23,486.85 445.79,475.97 449.67,467.99 C453.54,460.02 460.60,446.55 465.36,438.08 C470.11,429.61 473.79,422.45 473.52,422.19 C473.26,421.92 469.88,423.83 466.01,426.42 C456.07,433.09 444.04,438.48 431.93,441.70 C422.00,444.33 420.43,444.47 399.00,444.45 C379.55,444.44 375.13,444.13 366.37,442.22 C342.49,437.01 311.44,424.21 294.53,412.62 C292.22,411.03 289.51,410.01 288.03,410.16 C284.67,410.51 283.00,409.36 282.99,406.69 C282.98,405.17 281.30,403.33 277.50,400.70 C274.49,398.61 268.19,393.27 263.51,388.84 C258.79,384.37 254.42,381.01 253.69,381.29 C252.66,381.68 222.23,422.60 204.54,447.36 C201.29,451.92 176.61,485.30 166.00,499.50 C165.52,500.15 165.06,500.76 164.62,501.34 C159.49,508.19 157.55,510.78 157.93,512.97 C158.19,514.48 159.55,515.81 161.73,518.22 C164.35,521.12 168.07,526.88 169.99,531.00 C173.22,537.94 173.48,539.21 173.45,548.00 C173.43,554.35 172.85,559.09 171.71,562.28 C170.77,564.92 170.00,567.65 170.00,568.36 C170.00,569.44 189.91,583.25 196.54,586.76 C198.25,587.67 199.70,587.12 205.45,583.43 C213.92,577.98 217.21,576.93 228.00,576.30 C243.97,575.36 256.64,580.54 267.95,592.65 C272.77,597.82 275.61,601.94 277.63,606.73 C280.27,612.96 280.49,614.49 280.50,626.00 C280.50,633.78 280.05,639.28 279.32,640.55 C278.67,641.68 278.45,643.08 278.82,643.65 C279.19,644.22 284.00,647.54 289.50,651.02 C295.00,654.51 301.24,658.62 303.37,660.16 ZM 418.00 638.49 C418.00,639.62 426.95,631.00 474.00,584.53 C547.01,512.43 587.00,472.54 587.00,471.84 C587.00,470.93 580.66,470.33 557.00,468.99 C546.28,468.38 536.74,467.67 535.80,467.39 C532.79,466.52 532.62,463.15 535.38,459.18 C536.79,457.16 549.43,440.65 563.46,422.50 C577.49,404.35 588.97,389.23 588.98,388.91 C589.01,388.13 580.01,386.27 572.50,385.50 C567.70,385.01 564.70,385.42 557.50,387.52 C552.55,388.96 536.83,393.27 522.56,397.10 C508.29,400.92 496.55,404.15 496.48,404.28 C496.35,404.50 491.53,414.70 474.44,451.00 C461.29,478.92 453.00,497.27 453.00,498.45 C453.00,499.16 459.59,499.39 473.52,499.15 C494.35,498.79 497.00,499.17 497.00,502.55 C497.00,503.91 494.14,508.91 475.00,541.00 C459.63,566.76 437.85,603.64 424.17,627.07 C420.78,632.88 418.00,638.02 418.00,638.49 ZM 411.37 358.97 C409.95,360.66 408.05,362.37 407.14,362.77 C404.08,364.13 381.73,362.64 379.00,360.90 C377.62,360.03 374.99,358.40 373.14,357.28 C369.84,355.29 365.77,347.34 357.87,327.43 C356.03,322.80 355.49,322.27 351.68,321.43 C348.14,320.64 347.45,320.08 347.18,317.75 C346.93,315.52 347.27,315.00 348.96,315.00 C350.12,315.00 351.30,314.38 351.59,313.62 C351.88,312.86 349.17,305.93 345.56,298.20 C341.95,290.48 339.00,283.43 339.00,282.54 C339.00,281.65 339.98,279.59 341.19,277.96 L 343.38 275.00 L 355.25 275.00 C371.36,275.00 375.49,276.68 379.97,285.09 L 383.13 291.02 L 381.15 293.76 C380.06,295.27 377.60,298.01 375.68,299.86 L 372.19 303.21 L 370.64 300.86 C369.80,299.56 368.16,296.36 367.01,293.75 C365.02,289.25 364.70,289.00 361.00,289.00 C360.78,289.00 360.56,289.00 360.36,289.00 C359.14,288.99 358.32,288.98 357.99,289.38 C357.33,290.16 358.55,292.54 362.19,299.63 C362.50,300.22 362.82,300.84 363.15,301.50 C365.13,305.35 370.43,316.60 374.93,326.50 C384.00,346.45 384.97,348.74 386.32,348.98 C386.49,349.01 386.67,349.01 386.87,349.00 C386.95,349.00 387.03,349.00 387.11,349.00 C389.96,349.00 390.22,347.34 388.04,343.07 C386.92,340.88 386.01,338.72 386.03,338.29 C386.08,336.70 399.13,331.59 400.64,332.57 C401.44,333.08 404.76,338.54 408.03,344.70 L 413.96 355.89 ZM 443.87 409.97 C393.38,419.99 328.36,397.22 285.65,354.58 C269.41,338.37 256.73,316.89 251.97,297.52 C248.24,282.37 250.03,266.64 256.61,256.66 C260.36,250.98 260.47,252.77 256.85,260.52 C254.09,266.40 253.60,268.71 253.21,277.43 C252.76,287.55 254.28,299.00 256.07,299.00 C256.58,299.00 257.00,300.15 257.00,301.56 C257.00,302.97 258.15,306.55 259.55,309.51 C260.95,312.47 262.28,315.86 262.51,317.05 C262.74,318.24 264.29,320.52 265.96,322.12 C267.63,323.71 269.00,325.45 269.00,325.98 C269.00,327.34 275.22,336.00 276.19,336.00 C276.64,336.00 277.00,336.56 277.00,337.24 C277.00,338.76 278.89,340.85 291.52,353.25 C296.98,358.61 301.83,363.00 302.31,363.00 C302.79,363.00 303.99,364.01 304.99,365.23 L 306.80 367.47 L 308.78 365.02 C309.88,363.67 310.51,361.90 310.20,361.09 C309.89,360.27 314.68,363.07 320.84,367.30 C327.01,371.54 332.28,375.00 332.56,375.00 C332.84,375.00 334.18,375.72 335.53,376.61 L 337.99 378.22 L 335.59 380.11 C332.45,382.58 331.84,382.49 332.55,379.68 C333.40,376.26 330.60,374.15 328.15,376.36 C325.59,378.68 324.88,378.41 325.21,375.25 C325.46,372.92 325.15,372.54 323.25,372.74 C322.01,372.87 321.00,372.47 321.00,371.85 C321.00,371.23 320.21,370.14 319.25,369.44 C317.79,368.37 317.18,368.43 315.60,369.83 C313.78,371.43 313.73,371.39 314.37,368.73 C314.87,366.71 314.63,365.80 313.51,365.37 C312.02,364.79 309.00,366.52 309.00,367.94 C309.00,368.80 316.81,374.00 318.09,374.00 C318.59,374.00 319.00,374.46 319.00,375.02 C319.00,375.58 320.24,376.57 321.75,377.21 C323.26,377.86 325.17,378.93 326.00,379.59 C326.83,380.26 329.69,382.02 332.38,383.50 C336.30,385.68 337.42,385.94 338.11,384.85 C338.99,383.47 339.33,382.08 339.12,380.75 C338.97,379.83 340.28,379.79 342.48,380.63 C343.89,381.17 343.75,381.65 341.46,384.04 C338.84,386.77 338.83,386.84 340.83,387.91 C341.95,388.51 343.57,389.00 344.43,389.00 C345.30,389.00 346.92,389.92 348.04,391.04 C349.16,392.16 350.53,392.79 351.10,392.44 C351.66,392.09 352.89,392.49 353.81,393.32 C354.74,394.16 356.85,395.17 358.50,395.56 C360.15,395.95 361.95,396.61 362.50,397.01 C364.51,398.49 380.46,403.15 385.41,403.70 C388.21,404.02 391.04,404.70 391.69,405.21 C392.35,405.72 393.70,406.01 394.69,405.85 C395.69,405.68 397.11,405.94 397.87,406.41 C398.62,406.88 405.14,407.49 412.37,407.76 C432.31,408.52 450.37,405.04 464.50,397.70 C471.37,394.14 484.84,381.23 486.90,376.25 C488.19,373.14 490.00,371.85 490.00,374.05 C490.00,377.65 479.44,391.87 472.61,397.46 C466.17,402.74 454.33,407.89 443.87,409.97 ZM 543.31 343.75 C540.03,347.79 538.15,348.81 536.67,347.33 C535.26,345.92 536.12,342.82 539.05,338.78 C541.45,335.46 542.03,333.73 541.80,330.59 C541.53,326.97 540.96,326.25 535.50,322.53 C529.24,318.27 527.56,314.77 531.50,314.22 C533.57,313.93 542.06,318.94 547.11,323.44 C552.06,327.85 550.83,334.47 543.31,343.75 ZM 232.80 522.80 C230.18,525.42 225.35,523.18 217.59,515.74 C211.62,510.02 211.49,506.86 216.89,497.93 C220.96,491.19 222.85,489.90 224.95,492.44 C225.99,493.69 225.76,494.74 223.61,498.41 C222.00,501.14 221.00,504.36 221.00,506.75 C221.00,510.98 222.12,512.35 229.75,517.44 C234.35,520.50 234.62,520.98 232.80,522.80 ZM 291.16 285.67 C291.11,288.23 290.71,290.65 290.28,291.04 C289.26,291.95 283.00,289.31 283.00,287.96 C283.00,287.39 284.22,287.05 285.71,287.21 C290.55,287.72 289.62,284.60 283.53,279.85 C278.45,275.88 278.16,275.45 280.23,274.94 C282.41,274.41 286.59,275.32 290.20,277.11 C291.26,277.64 292.17,277.53 292.60,276.84 C293.38,275.58 290.32,272.89 284.75,269.95 C282.69,268.85 281.00,267.53 281.00,267.01 C281.00,265.80 284.36,264.00 286.63,264.00 C288.26,264.00 288.25,264.09 286.54,265.35 C284.82,266.60 285.02,266.91 289.29,269.85 C294.70,273.58 296.68,272.36 292.42,267.92 C289.18,264.54 290.48,264.01 294.42,267.11 C297.08,269.21 298.83,269.16 297.52,267.03 C297.14,266.42 295.07,264.81 292.92,263.45 C288.51,260.67 288.11,259.55 290.98,258.01 C292.48,257.21 292.86,257.26 292.57,258.23 C292.36,258.93 294.17,261.24 296.58,263.37 C300.94,267.21 300.98,267.22 301.82,264.95 C302.37,263.46 302.92,263.06 303.39,263.82 C304.18,265.11 301.11,269.92 299.46,269.97 C298.89,269.99 297.20,272.48 295.72,275.50 C294.24,278.52 292.62,281.00 292.14,281.00 C291.65,281.00 291.21,283.10 291.16,285.67 ZM 354.72 599.79 C350.11,604.13 344.13,603.36 337.25,597.56 C331.40,592.63 333.63,588.10 339.81,592.35 C347.99,597.98 350.73,597.55 355.55,589.91 C357.96,586.10 361.13,584.79 362.52,587.04 C363.26,588.23 358.16,596.56 354.72,599.79 ZM 430.80 244.80 C429.30,246.30 429.16,246.27 425.50,243.93 C421.83,241.58 415.27,241.42 412.14,243.62 C408.81,245.95 407.38,244.10 409.44,240.12 C413.04,233.16 418.65,232.49 427.32,237.99 C432.09,241.01 432.94,242.66 430.80,244.80 ZM 258.93 540.14 C257.48,542.83 256.03,542.49 249.42,537.87 C242.94,533.35 242.04,532.36 242.02,529.75 C241.99,526.82 246.53,527.68 252.25,531.67 C259.16,536.51 260.18,537.80 258.93,540.14 ZM 524.83 367.39 C521.56,371.36 519.61,371.91 518.14,369.28 C517.47,368.09 517.65,366.64 518.72,364.53 C521.43,359.24 526.10,354.00 528.12,354.00 C532.61,354.00 531.22,359.64 524.83,367.39 ZM 274.19 431.75 C272.86,433.54 270.96,435.00 269.99,435.00 C266.61,435.00 266.85,431.83 270.73,425.09 C274.67,418.24 277.50,416.49 279.94,419.42 C281.27,421.03 279.74,424.31 274.19,431.75 ZM 240.56 477.01 C235.84,484.04 232.90,485.78 231.57,482.32 C230.98,480.79 231.77,479.21 238.06,469.25 C239.70,466.65 242.21,466.34 244.01,468.51 C245.04,469.76 244.46,471.20 240.56,477.01 ZM 475.95 272.43 C478.38,275.03 478.38,275.06 476.43,277.01 C474.48,278.96 474.43,278.95 468.84,274.98 C462.52,270.50 461.56,268.98 463.43,266.42 C464.66,264.75 464.97,264.80 469.11,267.23 C471.53,268.65 474.60,270.99 475.95,272.43 ZM 256.24 455.75 C252.88,459.99 251.93,460.60 250.67,459.33 C249.16,457.83 250.20,454.17 253.56,449.18 C257.59,443.20 259.48,442.05 261.68,444.25 C263.41,445.98 262.54,447.83 256.24,455.75 ZM 501.00 291.47 C501.00,292.27 500.17,293.38 499.15,293.92 C497.67,294.71 496.04,294.06 491.15,290.71 C487.77,288.39 485.01,286.05 485.02,285.50 C485.05,283.13 486.86,281.75 489.14,282.36 C492.56,283.29 501.00,289.77 501.00,291.47 ZM 374.83 574.39 C371.97,577.86 370.09,578.76 368.67,577.33 C367.30,575.97 368.10,573.74 372.04,567.95 C376.10,561.96 377.25,561.24 380.00,562.98 C381.31,563.81 381.27,564.35 379.65,567.36 C378.63,569.24 376.46,572.41 374.83,574.39 ZM 452.80 260.80 C451.13,262.47 451.03,262.44 445.20,258.36 C441.40,255.70 440.00,254.07 440.00,252.33 C440.00,247.78 443.74,248.33 450.75,253.91 C454.16,256.63 454.81,258.79 452.80,260.80 ZM 523.00 307.55 C523.00,308.31 522.16,309.38 521.13,309.93 C519.63,310.73 518.16,310.17 513.88,307.19 C508.41,303.38 506.43,299.54 509.34,298.42 C512.10,297.36 523.00,304.65 523.00,307.55 ZM 411.17 528.25 C408.52,531.11 407.79,531.45 406.67,530.33 C405.21,528.88 406.17,525.72 409.64,520.48 C413.28,515.00 415.73,513.76 417.85,516.31 C419.02,517.73 416.14,522.89 411.17,528.25 ZM 319.46 259.07 C318.64,260.40 316.00,260.22 316.00,258.84 C316.00,256.96 311.02,251.00 309.45,251.00 C307.03,251.00 307.83,248.27 310.40,247.77 C315.29,246.84 318.78,248.06 320.06,251.14 C320.73,252.76 322.15,254.69 323.21,255.44 C324.53,256.36 324.78,257.02 324.00,257.50 C323.37,257.89 321.76,257.18 320.43,255.93 C318.47,254.09 318.00,253.96 318.00,255.27 C318.00,256.16 318.46,257.16 319.02,257.51 C319.58,257.86 319.77,258.56 319.46,259.07 ZM 394.77 548.05 C390.00,555.03 388.90,555.79 387.00,553.50 C385.46,551.65 386.25,549.60 390.94,543.19 C393.23,540.07 394.69,538.96 396.22,539.19 C399.63,539.69 399.35,541.36 394.77,548.05 ZM 325.92 586.15 C324.45,588.89 322.78,588.44 317.64,583.92 C310.36,577.51 311.68,572.87 319.48,577.44 C325.10,580.73 327.26,583.65 325.92,586.15 ZM 281.02 555.47 C279.17,557.70 277.65,557.38 272.92,553.75 C267.48,549.57 266.13,547.47 267.80,545.80 C268.82,544.78 269.92,544.99 273.44,546.86 C275.85,548.14 278.83,550.26 280.06,551.56 C281.91,553.53 282.08,554.20 281.02,555.47 ZM 302.50 568.00 C302.50,571.87 299.16,571.56 294.23,567.24 C291.56,564.90 289.97,562.66 289.98,561.25 C290.01,558.17 291.91,558.42 297.64,562.25 C301.29,564.69 302.50,566.12 302.50,568.00 ZM 370.14 254.52 C371.60,258.09 372.50,261.18 372.14,261.37 C370.81,262.11 368.84,260.71 367.96,258.40 C366.96,255.77 364.00,255.10 364.00,257.50 C364.00,259.12 360.48,259.59 359.56,258.09 C359.25,257.59 360.35,256.05 362.00,254.66 C363.65,253.27 365.00,251.20 365.00,250.06 C365.00,245.95 367.56,248.17 370.14,254.52 ZM 423.08 282.38 C420.67,284.98 419.08,285.69 418.91,284.25 C418.87,283.84 418.75,281.92 418.66,280.00 C418.54,277.27 418.12,276.56 416.75,276.79 C414.50,277.17 414.58,276.08 417.03,273.14 C420.20,269.34 422.41,270.99 421.64,276.58 C421.05,280.94 421.11,281.10 423.26,280.44 C425.49,279.75 425.49,279.76 423.08,282.38 ZM 406.92 268.58 C405.92,269.47 404.97,271.23 404.81,272.48 C404.54,274.43 404.16,274.62 402.10,273.85 L 399.70 272.95 L 401.78 270.73 C402.93,269.50 404.34,267.26 404.91,265.75 C406.23,262.26 407.20,262.30 411.23,266.01 L 414.50 269.02 L 411.61 267.98 C409.30,267.15 408.36,267.27 406.92,268.58 ZM 357.18 257.00 C357.14,257.27 356.41,257.65 355.55,257.82 C354.48,258.05 354.00,257.38 354.00,255.63 C354.00,254.25 353.52,252.82 352.93,252.46 C352.34,252.09 352.13,251.11 352.45,250.27 C352.77,249.43 352.52,248.13 351.89,247.37 C350.98,246.27 351.25,246.00 353.28,246.00 C355.58,246.00 355.88,246.49 356.53,251.25 C356.93,254.14 357.22,256.73 357.18,257.00 ZM 392.00 265.95 C392.00,267.08 391.35,268.00 390.56,268.00 C388.21,268.00 387.82,266.25 389.46,263.08 C390.31,261.44 391.00,259.18 391.00,258.05 C391.00,255.84 391.73,255.54 393.84,256.88 C394.96,257.59 394.91,258.27 393.59,260.82 C392.72,262.51 392.00,264.82 392.00,265.95 ZM 379.85 257.82 C379.18,260.71 378.10,263.00 377.39,263.00 C375.44,263.00 374.80,261.25 375.95,259.09 C376.53,258.01 377.00,256.00 377.00,254.62 C377.00,251.78 378.03,250.78 379.82,251.89 C380.78,252.48 380.79,253.76 379.85,257.82 ZM 349.00 254.47 C349.00,258.94 346.29,257.41 345.56,252.52 C345.19,250.06 344.45,247.78 343.93,247.45 C342.81,246.76 343.66,245.00 345.11,245.00 C346.42,245.00 349.00,251.27 349.00,254.47 ZM 335.07 253.37 C337.10,255.94 337.10,256.00 335.19,256.00 C334.11,256.00 332.50,254.89 331.62,253.54 C329.55,250.38 329.48,246.00 331.50,246.00 C332.41,246.00 333.00,246.93 333.00,248.37 C333.00,249.67 333.93,251.92 335.07,253.37 ZM 408.21 249.36 C409.47,250.32 409.73,251.38 409.19,253.37 C408.65,255.41 408.19,255.79 407.31,254.91 C406.68,254.28 406.39,253.14 406.69,252.38 C406.98,251.62 406.75,251.00 406.19,251.00 C405.63,251.00 404.99,251.53 404.77,252.18 C404.56,252.82 403.86,253.03 403.21,252.63 C402.32,252.08 402.33,251.44 403.26,249.95 C404.67,247.69 405.83,247.55 408.21,249.36 ZM 393.00 245.00 C393.00,247.30 392.55,248.00 391.06,248.00 C388.26,248.00 387.93,246.81 390.00,244.24 C392.42,241.26 393.00,241.41 393.00,245.00 ZM 281.00 287.16 C281.00,288.40 275.23,288.18 274.45,286.91 C273.21,284.91 275.55,283.84 278.35,285.11 C279.81,285.78 281.00,286.70 281.00,287.16 ZM 399.30 248.25 C398.76,251.03 396.69,251.92 395.44,249.90 C394.77,248.81 398.53,244.19 399.38,245.06 C399.63,245.30 399.59,246.74 399.30,248.25 ZM 426.00 264.08 C426.00,265.34 423.27,265.24 422.47,263.96 C421.64,262.62 423.80,260.00 425.73,260.00 C426.67,260.00 426.99,260.58 426.61,261.58 C426.27,262.45 426.00,263.58 426.00,264.08 ZM 319.78 233.96 C319.84,235.91 319.37,237.00 318.49,237.00 C316.70,237.00 315.68,235.32 316.98,234.51 C317.54,234.16 318.00,232.98 318.00,231.88 C318.00,228.66 319.69,230.63 319.78,233.96 ZM 437.35 267.76 C437.61,268.18 437.28,269.54 436.62,270.77 C435.60,272.67 435.16,272.83 433.76,271.76 C432.25,270.61 432.31,270.34 434.49,268.75 C435.81,267.79 437.09,267.34 437.35,267.76 ZM 449.13 276.73 C449.69,277.29 449.31,278.32 448.17,279.35 C446.53,280.83 446.13,280.86 445.08,279.59 C444.10,278.42 444.28,277.92 446.04,276.98 C447.36,276.27 448.58,276.18 449.13,276.73 ZM 367.98 236.25 C367.96,239.43 366.47,241.67 365.71,239.68 C364.99,237.81 365.94,234.00 367.12,234.00 C367.60,234.00 367.99,235.01 367.98,236.25 ZM 438.27 298.25 C437.32,299.30 436.92,299.83 436.51,299.84 C436.15,299.84 435.79,299.44 435.06,298.62 C434.94,298.48 434.80,298.33 434.66,298.18 C433.09,296.44 433.18,296.35 436.43,296.43 C439.62,296.49 439.74,296.62 438.27,298.25 ZM 431.56 266.58 C429.33,268.21 428.34,268.35 427.59,267.15 C426.90,266.03 431.78,263.44 432.75,264.41 C433.16,264.83 432.62,265.80 431.56,266.58 ZM 343.98 236.25 C343.99,236.66 343.10,237.00 342.00,237.00 C339.87,237.00 339.26,234.57 341.11,233.43 C342.15,232.79 343.95,234.56 343.98,236.25 ZM 434.98 292.04 C434.99,292.33 434.10,292.57 433.00,292.57 C430.85,292.57 430.28,290.56 432.11,289.43 C433.08,288.83 434.94,290.52 434.98,292.04 ZM 410.00 275.94 C410.00,277.67 408.24,277.99 406.99,276.49 C405.96,275.25 406.11,275.00 407.88,275.00 C409.04,275.00 410.00,275.42 410.00,275.94 Z" fill="rgb(1,1,1)"/>
<path d="M 388.66 404.22 L 389.00 404.27 L 389.00 400.64 C389.00,396.85 388.17,396.31 384.96,398.02 C383.47,398.82 382.60,398.60 381.02,397.02 C379.91,395.91 377.99,394.99 376.75,394.97 C374.56,394.94 374.55,394.90 376.43,393.48 C377.49,392.68 378.16,391.88 377.93,391.71 C376.27,390.52 366.63,388.29 365.00,388.71 C363.09,389.21 360.37,388.45 353.50,385.50 C346.57,382.53 345.00,381.60 345.00,380.52 C345.00,379.88 343.09,378.31 340.75,377.01 C330.34,371.25 313.78,359.59 305.74,352.37 C283.54,332.43 270.85,312.81 267.92,293.92 C266.63,285.61 267.15,273.45 268.87,271.73 L 268.89 271.71 C269.25,271.35 269.51,271.09 269.70,271.14 C270.21,271.26 270.18,273.69 270.05,282.81 L 270.05 283.00 C269.83,297.89 274.82,313.57 283.14,324.14 C284.71,326.15 286.00,328.09 286.00,328.47 C286.00,328.84 288.13,331.39 290.73,334.14 C293.32,336.88 296.36,340.27 297.48,341.66 C301.23,346.37 318.44,360.70 327.00,366.26 C344.95,377.91 359.26,384.40 379.00,389.84 C391.89,393.39 400.45,394.25 417.97,393.75 C435.65,393.24 441.18,392.01 450.60,386.50 C455.14,383.83 457.00,383.39 457.00,384.99 C457.00,386.57 445.43,391.96 437.14,394.23 C430.81,395.97 426.62,396.33 412.74,396.35 C403.52,396.36 396.55,396.73 397.24,397.17 C397.93,397.61 400.41,397.98 402.75,397.98 C405.09,397.99 407.00,398.40 407.00,398.89 C407.00,400.26 404.68,400.85 401.63,400.27 C399.43,399.85 398.77,400.17 398.32,401.87 C397.56,404.80 396.00,404.55 396.00,401.50 C396.00,399.48 395.50,399.00 393.44,399.00 C391.15,399.00 390.91,399.35 391.19,402.25 C391.45,404.96 391.92,405.51 394.03,405.55 C394.84,405.57 395.78,405.72 396.58,405.93 C395.94,405.79 395.25,405.76 394.69,405.85 C393.70,406.01 392.35,405.72 391.69,405.21 C391.30,404.90 390.13,404.54 388.66,404.22 ZM 448.00 287.68 C448.00,287.73 448.00,287.78 448.00,287.84 C448.00,288.33 448.00,288.66 447.85,288.75 C447.54,288.95 446.55,288.06 443.47,285.29 L 443.00 284.87 C426.36,269.90 400.78,255.36 379.00,248.49 C359.77,242.43 349.66,240.82 331.37,240.93 C319.94,240.99 315.43,241.46 307.80,243.40 C296.18,246.35 285.77,251.51 280.55,256.91 C276.36,261.24 275.00,261.89 275.00,259.58 C275.00,257.36 283.85,250.25 290.78,246.90 C299.01,242.93 314.34,239.09 324.99,238.35 C360.28,235.87 409.16,253.28 439.55,279.16 C444.20,283.12 448.00,286.95 448.00,287.68 ZM 257.62 304.54 C258.03,305.37 258.88,305.36 261.00,305.15 C265.25,304.74 265.61,304.44 264.13,302.65 C263.49,301.88 263.23,300.57 263.55,299.73 C264.19,298.07 262.64,296.74 259.52,296.25 C255.64,295.65 255.48,294.00 259.30,294.00 C263.62,294.00 264.25,292.31 260.25,291.44 C255.09,290.30 254.44,289.59 258.25,289.23 C262.76,288.81 263.17,287.18 258.98,286.35 C254.56,285.46 254.30,284.00 258.56,284.00 C261.71,284.00 262.07,283.78 261.01,282.51 C260.33,281.69 259.41,281.24 258.98,281.51 C257.84,282.22 255.00,280.98 255.00,279.78 C255.00,279.23 256.37,278.97 258.04,279.22 C262.10,279.82 262.88,278.29 259.03,277.29 C254.94,276.23 255.63,274.43 260.00,274.77 L 263.50 275.05 L 261.00 273.05 L 258.50 271.04 L 260.75 271.02 C263.73,270.99 263.61,269.60 260.50,268.18 C257.34,266.74 257.13,264.59 260.25,265.57 C261.49,265.96 263.06,266.49 263.75,266.74 C266.45,267.76 264.81,264.95 261.75,263.33 C259.34,262.04 258.94,261.51 260.20,261.24 C261.13,261.04 262.79,261.35 263.89,261.94 C265.94,263.04 267.66,261.87 266.57,260.11 C266.27,259.63 266.66,258.70 267.44,258.05 C269.79,256.10 271.33,260.08 269.33,262.93 C268.47,264.17 266.98,267.32 266.02,269.95 C263.14,277.82 264.48,296.45 268.75,308.00 C269.06,308.83 269.35,309.98 269.40,310.57 C269.46,311.15 270.25,312.38 271.16,313.30 C273.65,315.80 272.41,319.00 268.94,319.00 C265.90,319.00 264.67,320.24 265.69,321.85 C264.13,320.27 262.73,318.18 262.51,317.05 C262.31,316.00 261.24,313.21 260.02,310.53 C260.72,310.80 262.18,311.00 263.67,311.00 C265.96,311.00 267.00,310.53 267.00,309.50 C267.00,308.42 265.89,308.00 263.00,308.00 C260.92,308.00 259.64,308.24 259.19,308.72 C258.56,307.31 258.01,305.83 257.62,304.54 ZM 489.00 364.14 C489.00,365.24 486.22,365.07 482.95,363.77 C480.43,362.76 480.40,362.64 480.45,351.63 C480.48,345.51 480.11,337.91 479.63,334.75 L 478.77 329.00 L 482.97 329.00 C485.89,329.00 487.03,329.38 486.73,330.25 C486.48,330.96 485.08,331.36 483.47,331.18 C481.05,330.91 480.83,331.09 481.90,332.38 C482.58,333.20 484.35,334.02 485.82,334.19 C487.30,334.36 488.39,334.95 488.25,335.50 C488.01,336.48 487.61,336.62 484.44,336.88 C481.95,337.07 483.87,339.00 486.56,339.00 C487.92,339.00 489.00,339.59 489.00,340.33 C489.00,341.23 488.05,341.51 486.00,341.21 C484.35,340.97 483.00,341.23 483.00,341.78 C483.00,342.96 485.37,344.00 488.08,344.00 C489.14,344.00 490.00,344.66 490.00,345.48 C490.00,346.58 489.25,346.80 487.00,346.35 C483.03,345.56 483.02,347.63 486.99,348.50 C491.14,349.41 492.29,351.51 488.19,350.69 C484.03,349.86 483.04,351.77 486.92,353.12 C491.15,354.60 490.84,356.25 486.50,355.43 C481.98,354.59 481.76,356.62 486.25,357.78 C490.42,358.86 489.57,360.56 485.00,360.29 L 481.50 360.08 L 485.25 361.68 C487.31,362.55 489.00,363.66 489.00,364.14 ZM 442.00 303.00 C442.00,305.45 438.04,303.63 434.95,299.75 C433.10,297.41 431.25,295.36 430.85,295.19 C430.45,295.02 428.65,293.59 426.85,292.01 C423.92,289.45 423.67,288.84 424.55,286.34 C426.07,282.02 430.00,281.12 435.54,283.81 C438.03,285.02 440.33,286.70 440.65,287.54 C441.46,289.65 438.20,293.00 435.35,293.00 C434.06,293.00 433.00,293.40 433.00,293.89 C433.00,295.35 436.05,296.08 439.47,295.44 C442.14,294.94 442.94,295.26 444.33,297.38 C446.40,300.54 446.41,301.00 444.41,301.00 C443.53,301.00 442.58,300.10 442.29,299.00 C441.67,296.63 440.69,296.47 439.04,298.46 C437.65,300.13 438.45,302.00 440.56,302.00 C441.35,302.00 442.00,302.45 442.00,303.00 ZM 319.78 233.96 C319.72,232.02 319.13,230.54 318.64,230.28 C318.86,229.81 319.04,230.28 319.51,231.75 C320.55,234.99 323.41,234.76 322.59,231.50 C322.15,229.75 322.37,229.00 323.32,229.00 C324.07,229.00 325.19,230.12 325.82,231.50 C327.16,234.44 328.49,234.68 329.95,232.25 C330.95,230.58 331.05,230.58 332.05,232.25 C333.56,234.77 335.00,234.40 335.00,231.50 C335.00,230.12 335.44,229.00 335.98,229.00 C336.52,229.00 337.24,230.12 337.59,231.50 C338.35,234.53 340.00,234.81 340.00,231.92 C340.00,229.19 342.40,229.96 342.82,232.83 C343.28,235.95 346.00,235.59 346.00,232.42 C346.00,229.31 348.35,229.61 348.81,232.78 C348.99,233.95 350.06,235.20 351.20,235.56 C352.83,236.08 352.97,236.40 351.88,237.09 C351.12,237.58 350.05,237.92 349.50,237.85 C349.00,237.80 345.99,237.41 342.57,236.97 C343.39,236.88 343.99,236.59 343.98,236.25 C343.95,234.56 342.15,232.79 341.11,233.43 C339.61,234.36 339.72,236.13 340.96,236.77 C337.02,236.32 330.42,236.17 325.90,236.44 C322.93,236.62 320.76,236.69 319.24,236.63 C319.63,236.16 319.82,235.25 319.78,233.96 ZM 430.39 407.25 C431.07,406.85 430.82,406.45 429.64,405.15 C428.74,404.16 428.00,402.82 428.00,402.17 C428.00,400.63 425.75,400.67 424.08,402.25 C423.02,403.25 422.66,403.25 422.29,402.25 C421.45,399.97 419.00,400.90 419.00,403.50 C419.00,404.88 418.55,406.00 418.00,406.00 C417.45,406.00 416.99,405.44 416.98,404.75 C416.98,404.06 416.56,402.85 416.06,402.06 C415.31,400.88 414.88,400.86 413.59,401.93 C412.28,403.01 411.92,402.95 411.39,401.57 C411.04,400.66 410.92,399.77 411.13,399.60 C412.21,398.67 432.00,398.10 432.00,398.99 C432.00,399.55 431.53,400.00 430.96,400.00 C430.29,400.00 430.25,400.61 430.87,401.75 C431.83,403.55 432.00,404.20 432.00,406.09 C432.00,406.63 432.87,406.84 434.34,406.79 C433.04,406.97 431.72,407.12 430.39,407.25 ZM 367.98 236.25 C367.98,236.22 367.98,236.19 367.98,236.16 C367.99,236.31 368.00,236.46 368.00,236.62 C368.00,238.87 368.35,239.17 370.49,238.76 C371.91,238.49 373.47,238.87 374.12,239.64 C375.62,241.46 378.00,241.37 378.00,239.50 C378.00,238.68 378.71,238.00 379.57,238.00 C380.68,238.00 380.95,238.58 380.50,240.00 C379.88,241.95 380.15,242.14 383.92,242.41 C384.70,242.46 385.50,243.01 385.71,243.63 C386.39,245.68 383.57,245.71 378.00,243.73 C374.98,242.65 370.92,241.55 369.00,241.28 C367.08,241.01 364.62,240.32 363.54,239.74 C361.63,238.73 361.63,238.68 363.79,237.88 C364.54,237.60 365.21,237.09 365.61,236.54 C365.40,237.63 365.39,238.85 365.71,239.68 C366.47,241.67 367.96,239.43 367.98,236.25 ZM 434.98 292.04 C434.94,290.53 433.13,288.87 432.15,289.41 C433.56,288.17 433.92,288.35 435.30,289.73 C436.90,291.33 437.00,291.31 437.00,289.33 C437.00,288.17 435.84,286.47 434.42,285.54 C431.97,283.94 431.71,283.94 429.67,285.66 C428.47,286.66 427.35,287.56 427.17,287.65 C426.99,287.75 427.36,288.81 428.00,290.01 L 429.17 292.19 L 431.30 290.19 C430.57,291.28 431.28,292.57 433.00,292.57 C434.10,292.57 434.99,292.33 434.98,292.04 ZM 299.65 270.00 C298.97,270.00 297.20,272.48 295.72,275.50 C297.20,272.48 298.89,269.99 299.46,269.97 C301.11,269.92 304.18,265.11 303.39,263.82 C302.92,263.06 302.37,263.46 301.82,264.95 C301.80,265.02 301.77,265.08 301.75,265.15 C301.83,263.11 298.28,259.50 295.40,259.17 L 292.70 258.87 C292.57,258.59 292.53,258.37 292.57,258.23 C292.86,257.26 292.48,257.21 290.98,258.01 C289.04,259.05 288.60,259.90 289.87,261.20 C287.29,259.25 287.61,258.40 290.98,257.01 C295.12,255.29 297.86,256.25 302.51,261.03 L 306.50 265.14 L 303.69 267.57 C302.15,268.91 300.33,270.00 299.65,270.00 ZM 406.92 268.58 C408.36,267.27 409.30,267.15 411.61,267.98 L 414.50 269.02 L 411.23 266.01 C410.53,265.36 409.91,264.82 409.38,264.39 C411.93,265.47 415.03,267.23 415.63,268.22 C416.38,269.42 413.99,271.11 412.69,270.31 C412.19,270.00 411.39,270.36 410.92,271.12 C410.22,272.24 409.69,272.27 408.04,271.25 C407.11,270.67 406.17,270.18 405.76,270.04 C406.10,269.47 406.50,268.95 406.92,268.58 ZM 343.06 255.90 C341.45,258.89 337.06,258.47 333.46,255.36 C334.07,255.76 334.69,256.00 335.19,256.00 C336.92,256.00 337.08,255.95 335.59,254.02 C336.55,254.89 337.62,254.90 340.20,254.47 C344.01,253.82 344.13,253.88 343.06,255.90 ZM 266.08 317.05 C270.13,317.69 270.43,317.57 269.65,315.54 C269.27,314.55 267.78,314.00 265.45,314.00 C260.81,314.00 261.28,316.28 266.08,317.05 ZM 275.49 335.52 C276.20,335.61 277.60,335.22 279.01,334.50 C281.87,333.01 282.42,332.99 283.73,334.30 C285.04,335.62 284.74,335.87 281.11,336.48 C279.09,336.82 277.40,337.34 277.06,337.70 C277.02,337.54 277.00,337.39 277.00,337.24 C277.00,336.56 276.64,336.00 276.19,336.00 C276.05,336.00 275.81,335.82 275.49,335.52 ZM 438.27 298.25 C439.74,296.62 439.62,296.49 436.43,296.43 C433.18,296.35 433.09,296.44 434.66,298.18 C434.80,298.33 434.94,298.48 435.06,298.62 C435.79,299.44 436.15,299.84 436.51,299.84 C436.92,299.83 437.32,299.30 438.27,298.25 ZM 493.00 361.83 C493.00,364.81 492.55,367.00 491.94,367.00 C491.24,367.00 491.11,365.37 491.57,362.25 C492.50,355.79 493.00,355.65 493.00,361.83 ZM 407.31 254.91 C408.19,255.79 408.64,255.42 409.19,253.39 L 408.50 255.98 L 405.23 254.00 C404.35,253.46 403.71,253.04 403.29,252.67 C403.91,253.01 404.57,252.80 404.77,252.18 C404.99,251.53 405.63,251.00 406.19,251.00 C406.75,251.00 406.98,251.62 406.69,252.38 C406.39,253.14 406.68,254.28 407.31,254.91 ZM 443.80 405.10 C449.75,403.59 456.80,401.25 462.00,398.77 C464.03,397.81 465.75,396.92 467.32,395.98 C466.30,396.68 465.35,397.26 464.50,397.70 C458.30,400.92 451.34,403.40 443.80,405.10 ZM 296.45 262.92 C299.04,265.60 300.70,266.64 301.38,266.02 C300.79,267.06 300.07,266.44 296.58,263.37 C294.90,261.89 293.51,260.31 292.90,259.26 ZM 293.47 263.80 C295.41,265.08 297.17,266.47 297.52,267.03 C298.83,269.16 297.08,269.21 294.42,267.11 C295.90,268.28 297.42,268.91 297.80,268.53 C298.34,267.99 296.82,266.34 293.47,263.80 ZM 277.53 338.70 C278.76,340.29 281.97,343.71 285.69,347.50 C280.61,342.44 278.42,340.09 277.53,338.70 ZM 480.56 384.45 C483.69,381.03 486.32,377.67 486.90,376.25 C486.12,378.15 483.67,381.20 480.56,384.45 ZM 406.20 263.47 C405.76,263.83 405.39,264.51 405.00,265.51 C405.00,265.50 405.00,265.49 405.00,265.48 C405.00,264.73 405.42,263.86 405.93,263.54 C406.00,263.50 406.09,263.48 406.20,263.47 ZM 402.71 407.16 C406.35,407.47 411.53,407.72 416.38,407.86 C415.05,407.85 413.71,407.81 412.37,407.76 C408.76,407.63 405.33,407.40 402.71,407.16 ZM 317.94 232.58 C317.80,233.44 317.43,234.24 316.98,234.51 C316.97,234.52 316.96,234.53 316.95,234.53 C317.27,234.11 317.65,233.35 317.94,232.58 ZM 256.96 300.82 C257.06,301.25 257.14,301.74 257.19,302.25 C257.24,302.78 257.29,303.22 257.35,303.59 C257.13,302.74 257.00,302.03 257.00,301.56 C257.00,301.30 256.99,301.06 256.96,300.82 ZM 267.19 323.37 C268.21,324.29 269.00,325.40 269.00,325.98 C269.00,325.58 268.25,324.53 267.19,323.37 ZM 372.24 400.52 C367.62,399.16 363.46,397.72 362.50,397.01 C363.37,397.65 367.61,399.12 372.24,400.52 ZM 367.05 234.00 C366.67,234.05 366.31,234.49 366.03,235.13 C366.15,234.48 366.54,234.00 367.00,234.00 C367.02,234.00 367.04,234.00 367.05,234.00 ZM 403.03 269.14 C402.62,269.74 402.18,270.30 401.78,270.73 L 401.33 271.21 L 402.41 269.92 C402.63,269.67 402.84,269.41 403.03,269.14 ZM 330.06 249.15 C330.15,250.11 330.43,251.19 330.89,252.22 C330.42,251.24 330.14,250.14 330.06,249.15 ZM 316.40 235.50 C316.41,235.69 316.47,235.88 316.58,236.06 C316.41,235.91 316.36,235.72 316.40,235.50 ZM 333.12 249.29 C333.04,248.95 333.00,248.64 333.00,248.37 C333.00,247.46 332.77,246.76 332.37,246.36 C332.76,246.75 333.00,247.43 333.00,248.28 C333.00,248.58 333.04,248.92 333.12,249.29 ZM 269.18 326.61 C269.06,326.33 269.00,326.12 269.00,325.98 C269.00,326.12 269.06,326.33 269.18,326.61 Z" fill="rgb(84,84,84)"/>
<path d="M 442.00 303.00 C442.00,302.45 441.35,302.00 440.56,302.00 C438.45,302.00 437.65,300.13 439.04,298.46 C440.69,296.47 441.67,296.63 442.29,299.00 C442.58,300.10 443.53,301.00 444.41,301.00 C446.41,301.00 446.40,300.54 444.33,297.38 C442.94,295.26 442.14,294.94 439.47,295.44 C437.34,295.84 435.37,295.71 434.17,295.20 C435.57,295.75 438.06,295.77 440.82,295.15 C444.37,294.35 445.30,294.55 448.43,296.78 C452.24,299.49 452.95,301.42 450.47,302.37 C449.46,302.76 448.63,302.15 448.03,300.58 C447.53,299.27 446.53,297.84 445.81,297.41 C444.87,296.84 444.90,297.11 445.93,298.37 C447.20,299.94 447.05,300.39 444.52,302.57 C440.83,305.74 438.39,305.64 436.60,302.25 C436.22,301.55 435.80,300.87 435.30,300.17 C438.33,303.76 442.00,305.36 442.00,303.00 ZM 427.24 407.23 C427.83,407.33 428.35,407.38 428.78,407.40 C424.76,407.75 420.62,407.90 416.38,407.86 L 416.38 407.86 C413.95,407.79 411.44,407.69 409.08,407.57 C409.82,407.08 410.39,405.73 410.58,403.62 C410.71,402.17 410.88,400.85 411.03,400.12 C411.06,400.50 411.18,401.03 411.39,401.57 C411.88,402.86 412.23,403.00 413.33,402.13 C413.19,402.29 413.03,402.47 412.87,402.66 C411.80,403.97 411.77,404.42 412.76,404.75 C413.45,404.98 413.76,405.58 413.45,406.09 C413.14,406.59 413.73,407.00 414.77,407.00 C416.29,407.00 416.57,406.43 416.21,404.00 C415.97,402.31 415.63,401.37 415.11,401.16 C415.44,401.22 415.71,401.52 416.06,402.06 C416.56,402.85 416.98,404.06 416.98,404.75 C416.99,405.44 417.45,406.00 418.00,406.00 C418.55,406.00 419.00,404.88 419.00,403.50 C419.00,403.15 419.04,402.83 419.12,402.54 C419.20,403.08 419.37,403.80 419.63,404.75 C419.96,405.99 420.90,407.00 421.72,407.00 C422.67,407.00 422.99,406.42 422.61,405.42 C422.27,404.55 422.00,403.20 422.00,402.42 C422.00,401.64 421.33,401.00 420.50,401.00 L 420.46 401.00 C421.15,400.81 421.90,401.18 422.29,402.25 C422.66,403.25 423.02,403.25 424.08,402.25 C424.30,402.04 424.53,401.86 424.76,401.70 C424.64,401.82 424.53,401.96 424.43,402.11 C424.05,402.72 424.31,403.57 425.00,404.00 C425.69,404.43 425.97,405.24 425.61,405.82 C425.26,406.39 425.98,407.02 427.24,407.23 ZM 356.32 386.68 C361.17,388.65 363.38,389.13 365.00,388.71 C366.63,388.29 376.27,390.52 377.93,391.71 C378.16,391.88 377.49,392.68 376.43,393.48 C375.75,393.99 375.32,394.32 375.15,394.54 C374.85,394.39 374.62,394.20 374.50,394.00 C374.16,393.45 372.78,393.00 371.43,393.00 C369.20,393.00 367.34,392.30 363.00,389.84 C361.72,389.11 359.49,388.05 356.32,386.68 ZM 402.71 407.16 C401.65,407.06 400.73,406.96 399.98,406.86 C400.39,406.76 400.86,406.61 401.42,406.39 C403.47,405.60 403.47,401.39 401.41,400.60 C400.35,400.20 399.45,400.24 398.84,400.66 C399.33,400.04 400.11,399.98 401.63,400.27 C403.07,400.55 404.35,400.56 405.30,400.35 C404.77,401.11 405.07,403.05 406.18,405.49 C406.63,406.49 407.13,407.15 407.62,407.50 C405.82,407.39 404.14,407.28 402.71,407.16 ZM 435.30 289.73 C433.92,288.35 433.56,288.17 432.15,289.41 C432.13,289.42 432.12,289.42 432.11,289.43 C431.75,289.66 431.48,289.92 431.30,290.19 L 429.17 292.19 L 428.45 290.84 C428.91,291.03 429.56,290.44 431.00,289.00 C433.35,286.65 433.41,286.37 431.71,285.72 C429.88,285.02 427.29,287.14 427.49,288.94 C427.18,288.24 427.04,287.72 427.17,287.65 C427.35,287.56 428.47,286.66 429.67,285.66 C431.71,283.94 431.97,283.94 434.42,285.54 C435.84,286.47 437.00,288.17 437.00,289.33 C437.00,290.82 436.94,291.20 436.22,290.60 C436.48,290.58 436.71,290.36 436.84,289.98 C437.05,289.34 436.72,288.32 436.11,287.71 C435.30,286.90 435.00,287.01 435.00,288.13 C435.00,288.68 435.14,289.29 435.34,289.77 ZM 493.00 361.83 C493.00,356.05 492.57,355.80 491.74,361.08 C491.90,359.36 492.01,357.33 492.02,355.62 C492.03,351.95 492.30,350.92 493.00,352.00 C494.08,353.67 494.30,361.28 493.37,364.75 C492.44,368.23 490.67,367.47 491.37,363.91 C491.19,365.94 491.38,367.00 491.94,367.00 C492.55,367.00 493.00,364.81 493.00,361.83 ZM 433.70 298.21 C432.73,297.14 431.53,295.97 430.02,294.62 C430.42,294.93 430.72,295.13 430.85,295.19 C431.16,295.32 432.33,296.57 433.70,298.21 ZM 430.39 407.25 C430.23,407.27 430.08,407.28 429.92,407.30 C430.78,407.03 430.66,406.29 429.57,405.07 C428.70,404.12 428.00,402.82 428.00,402.17 C428.00,402.82 428.74,404.16 429.64,405.15 C430.82,406.45 431.07,406.85 430.39,407.25 ZM 411.18 399.56 C411.19,399.53 411.20,399.52 411.21,399.51 C411.76,399.07 417.08,398.73 422.20,398.61 C417.18,398.74 411.96,399.11 411.18,399.56 ZM 397.58 406.25 C397.29,406.12 396.94,406.01 396.58,405.93 C395.78,405.72 394.84,405.57 394.03,405.55 C393.11,405.53 392.51,405.42 392.09,405.07 C392.53,405.42 393.19,405.53 394.21,405.55 C395.65,405.57 397.12,405.88 397.58,406.25 ZM 397.97 402.89 C397.87,403.52 397.47,404.00 397.00,404.00 C396.87,404.00 396.74,403.93 396.62,403.81 C397.02,404.13 397.55,403.83 397.97,402.89 ZM 426.74 401.04 C427.47,401.05 428.00,401.43 428.00,402.17 C428.00,401.49 427.44,401.11 426.74,401.04 ZM 406.39 399.92 C406.76,399.68 406.97,399.35 407.00,398.97 C407.00,398.98 407.00,398.99 407.00,399.00 C407.00,399.41 406.75,399.77 406.39,399.92 ZM 433.00 293.92 C433.00,293.91 433.00,293.90 433.00,293.89 C433.00,293.40 434.06,293.00 435.35,293.00 C434.07,293.00 433.02,293.41 433.00,293.92 ZM 376.53 394.96 C376.60,394.97 376.67,394.97 376.75,394.97 C376.88,394.97 377.02,394.98 377.16,395.00 C377.12,395.00 377.09,395.00 377.06,395.00 C376.88,395.00 376.70,394.99 376.53,394.96 ZM 346.89 382.44 C347.53,382.80 348.37,383.21 349.46,383.72 C348.38,383.22 347.54,382.80 346.89,382.44 Z" fill="rgb(170,170,170)"/>
<path d="M 303.37 660.16 C301.24,658.62 295.00,654.51 289.50,651.02 C284.00,647.54 279.19,644.22 278.82,643.65 C278.45,643.08 278.67,641.68 279.32,640.55 C280.05,639.28 280.50,633.78 280.50,626.00 C280.49,614.49 280.27,612.96 277.63,606.73 C275.61,601.94 272.77,597.82 267.95,592.65 C256.64,580.54 243.97,575.36 228.00,576.30 C217.21,576.93 213.92,577.98 205.45,583.43 C199.70,587.12 198.25,587.67 196.54,586.76 C189.91,583.25 170.00,569.44 170.00,568.36 C170.00,567.65 170.77,564.92 171.71,562.28 C172.85,559.09 173.43,554.35 173.45,548.00 C173.48,539.21 173.22,537.94 169.99,531.00 C168.07,526.88 164.35,521.12 161.73,518.22 C156.13,512.02 155.91,513.01 166.00,499.50 C176.61,485.30 201.29,451.92 204.54,447.36 C222.23,422.60 252.66,381.68 253.69,381.29 C254.42,381.01 258.79,384.37 263.51,388.84 C268.19,393.27 274.49,398.61 277.50,400.70 C281.30,403.33 282.98,405.17 282.99,406.69 C283.00,409.36 284.67,410.51 288.03,410.16 C289.51,410.01 292.22,411.03 294.53,412.62 C311.44,424.21 342.49,437.01 366.37,442.22 C375.13,444.13 379.55,444.44 399.00,444.45 C420.43,444.47 422.00,444.33 431.93,441.70 C444.04,438.48 456.07,433.09 466.01,426.42 C469.88,423.83 473.26,421.92 473.52,422.19 C473.79,422.45 470.11,429.61 465.36,438.08 C460.60,446.55 453.54,460.02 449.67,467.99 C445.79,475.97 440.23,486.85 437.31,492.17 C432.04,501.77 430.88,506.48 433.20,508.80 C434.04,509.64 439.58,510.00 451.70,510.00 C461.21,510.00 469.00,510.30 469.00,510.66 C469.00,511.03 466.37,514.74 463.16,518.91 C459.95,523.09 446.16,541.35 432.51,559.50 C418.87,577.65 406.85,593.62 405.82,595.00 C404.78,596.38 401.98,599.98 399.60,603.02 C397.21,606.06 388.90,617.08 381.12,627.52 C373.34,637.96 365.74,648.01 364.23,649.85 L 361.50 653.20 L 355.00 650.91 C350.04,649.16 346.25,648.60 338.98,648.56 C330.21,648.50 328.94,648.76 322.89,651.73 C319.27,653.51 314.27,656.77 311.78,658.96 L 307.24 662.96 L 303.37 660.16 ZM 354.72 599.79 C358.16,596.56 363.26,588.23 362.52,587.04 C361.13,584.79 357.96,586.10 355.55,589.91 C350.73,597.55 347.99,597.98 339.81,592.35 C333.63,588.10 331.40,592.63 337.25,597.56 C344.13,603.36 350.11,604.13 354.72,599.79 ZM 325.92 586.15 C327.26,583.65 325.10,580.73 319.48,577.44 C311.68,572.87 310.36,577.51 317.64,583.92 C322.78,588.44 324.45,588.89 325.92,586.15 ZM 374.83 574.39 C376.46,572.41 378.63,569.24 379.65,567.36 C381.27,564.35 381.31,563.81 380.00,562.98 C377.25,561.24 376.10,561.96 372.04,567.95 C368.10,573.74 367.30,575.97 368.67,577.33 C370.09,578.76 371.97,577.86 374.83,574.39 ZM 302.50 568.00 C302.50,566.12 301.29,564.69 297.64,562.25 C291.91,558.42 290.01,558.17 289.98,561.25 C289.97,562.66 291.56,564.90 294.23,567.24 C299.16,571.56 302.50,571.87 302.50,568.00 ZM 281.02 555.47 C282.08,554.20 281.91,553.53 280.06,551.56 C278.83,550.26 275.85,548.14 273.44,546.86 C269.92,544.99 268.82,544.78 267.80,545.80 C266.13,547.47 267.48,549.57 272.92,553.75 C277.65,557.38 279.17,557.70 281.02,555.47 ZM 394.77 548.05 C399.35,541.36 399.63,539.69 396.22,539.19 C394.69,538.96 393.23,540.07 390.94,543.19 C386.25,549.60 385.46,551.65 387.00,553.50 C388.90,555.79 390.00,555.03 394.77,548.05 ZM 258.93 540.14 C260.18,537.80 259.16,536.51 252.25,531.67 C246.53,527.68 241.99,526.82 242.02,529.75 C242.04,532.36 242.94,533.35 249.42,537.87 C256.03,542.49 257.48,542.83 258.93,540.14 ZM 411.17 528.25 C416.14,522.89 419.02,517.73 417.85,516.31 C415.73,513.76 413.28,515.00 409.64,520.48 C406.17,525.72 405.21,528.88 406.67,530.33 C407.79,531.45 408.52,531.11 411.17,528.25 ZM 232.80 522.80 C234.62,520.98 234.35,520.50 229.75,517.44 C222.12,512.35 221.00,510.98 221.00,506.75 C221.00,504.36 222.00,501.14 223.61,498.41 C225.76,494.74 225.99,493.69 224.95,492.44 C222.85,489.90 220.96,491.19 216.89,497.93 C211.49,506.86 211.62,510.02 217.59,515.74 C225.35,523.18 230.18,525.42 232.80,522.80 ZM 240.56 477.01 C244.46,471.20 245.04,469.76 244.01,468.51 C242.21,466.34 239.70,466.65 238.06,469.25 C231.77,479.21 230.98,480.79 231.57,482.32 C232.90,485.78 235.84,484.04 240.56,477.01 ZM 256.24 455.75 C262.54,447.83 263.41,445.98 261.68,444.25 C259.48,442.05 257.59,443.20 253.56,449.18 C250.20,454.17 249.16,457.83 250.67,459.33 C251.93,460.60 252.88,459.99 256.24,455.75 ZM 274.19 431.75 C279.74,424.31 281.27,421.03 279.94,419.42 C277.50,416.49 274.67,418.24 270.73,425.09 C266.85,431.83 266.61,435.00 269.99,435.00 C270.96,435.00 272.86,433.54 274.19,431.75 ZM 418.00 638.49 C418.00,638.02 420.78,632.88 424.17,627.07 C437.85,603.64 459.63,566.76 475.00,541.00 C494.14,508.91 497.00,503.91 497.00,502.55 C497.00,499.17 494.35,498.79 473.52,499.15 C459.59,499.39 453.00,499.16 453.00,498.45 C453.00,497.27 461.29,478.92 474.44,451.00 C491.53,414.70 496.35,404.50 496.48,404.28 C496.55,404.15 508.29,400.92 522.56,397.10 C536.83,393.27 552.55,388.96 557.50,387.52 C564.70,385.42 567.70,385.01 572.50,385.50 C580.01,386.27 589.01,388.13 588.98,388.91 C588.97,389.23 577.49,404.35 563.46,422.50 C549.43,440.65 536.79,457.16 535.38,459.18 C532.62,463.15 532.79,466.52 535.80,467.39 C536.74,467.67 546.28,468.38 557.00,468.99 C580.66,470.33 587.00,470.93 587.00,471.84 C587.00,472.54 547.01,512.43 474.00,584.53 C426.95,631.00 418.00,639.62 418.00,638.49 ZM 379.33 436.94 C360.98,434.55 337.34,427.18 318.47,417.97 C274.05,396.29 242.23,362.85 231.42,326.50 C227.70,314.01 227.44,295.43 230.81,283.50 C234.85,269.22 241.05,258.22 250.96,247.78 C263.95,234.09 277.29,226.84 297.00,222.78 C305.09,221.12 309.32,220.89 325.50,221.28 C343.08,221.70 353.28,222.98 367.13,226.49 C369.60,227.12 370.82,225.73 388.58,202.08 C398.94,188.28 408.06,177.00 408.86,177.00 C409.66,177.00 413.11,178.57 416.54,180.49 C430.55,188.32 443.07,187.18 457.69,176.74 C462.22,173.50 464.90,173.50 468.75,176.72 C469.92,177.70 474.35,180.98 478.60,184.00 C482.84,187.02 487.36,190.40 488.63,191.50 L 490.94 193.50 L 489.31 203.18 C487.79,212.27 487.80,213.29 489.47,220.18 C492.98,234.69 501.88,247.15 513.95,254.46 C529.15,263.66 549.95,263.05 562.69,253.03 C564.11,251.91 565.88,251.00 566.62,251.00 C567.76,251.00 590.70,265.64 593.41,268.09 C593.94,268.58 593.38,272.07 592.04,276.59 C587.61,291.51 590.78,306.33 600.70,317.04 C603.61,320.19 606.00,323.02 606.00,323.32 C606.00,323.62 602.73,328.06 598.74,333.19 C594.75,338.31 586.92,348.58 581.35,356.00 C575.78,363.42 570.38,370.25 569.36,371.18 C567.23,373.10 506.46,388.85 500.75,388.96 C499.64,388.99 499.00,388.25 499.00,386.93 C499.00,384.45 497.28,381.00 496.04,381.00 C495.55,381.00 493.69,383.59 491.90,386.75 C487.35,394.83 480.36,403.46 471.73,411.65 C456.54,426.08 443.25,432.62 421.26,436.46 C411.93,438.09 390.09,438.34 379.33,436.94 ZM 443.87 409.97 C454.33,407.89 466.17,402.74 472.61,397.46 C479.44,391.87 490.00,377.65 490.00,374.05 C490.00,371.85 488.19,373.14 486.90,376.25 C486.16,378.04 482.17,382.93 478.03,387.12 C472.03,393.18 468.77,395.56 462.00,398.77 C451.06,403.97 432.00,408.62 432.00,406.09 C432.00,404.20 431.83,403.55 430.87,401.75 C430.25,400.61 430.29,400.00 430.96,400.00 C431.53,400.00 432.00,399.55 432.00,398.99 C432.00,398.15 412.29,398.64 411.21,399.51 C411.06,399.64 410.77,401.49 410.58,403.62 C410.17,408.25 407.88,409.23 406.18,405.49 C404.74,402.33 404.66,400.00 406.00,400.00 C406.55,400.00 407.00,399.55 407.00,399.00 C407.00,398.45 405.09,397.99 402.75,397.98 C400.41,397.98 397.93,397.61 397.24,397.17 C396.55,396.73 403.52,396.36 412.74,396.35 C426.62,396.33 430.81,395.97 437.14,394.23 C445.43,391.96 457.00,386.57 457.00,384.99 C457.00,383.39 455.14,383.83 450.60,386.50 C441.18,392.01 435.65,393.24 417.97,393.75 C400.45,394.25 391.89,393.39 379.00,389.84 C359.26,384.40 344.95,377.91 327.00,366.26 C318.44,360.70 301.23,346.37 297.48,341.66 C296.36,340.27 293.32,336.88 290.73,334.14 C288.13,331.39 286.00,328.84 286.00,328.47 C286.00,328.09 284.71,326.15 283.14,324.14 C274.82,313.57 269.83,297.89 270.05,283.00 C270.23,270.31 270.23,270.37 268.87,271.73 C267.15,273.45 266.63,285.61 267.92,293.92 C270.85,312.81 283.54,332.43 305.74,352.37 C313.78,359.59 330.34,371.25 340.75,377.01 C343.09,378.31 345.00,379.88 345.00,380.52 C345.00,381.61 346.76,382.64 353.50,385.47 C358.18,387.45 361.37,388.91 363.00,389.84 C367.34,392.30 369.20,393.00 371.43,393.00 C372.78,393.00 374.16,393.45 374.50,394.00 C374.84,394.55 375.99,395.00 377.06,395.00 C378.13,395.00 379.91,395.91 381.02,397.02 C382.60,398.60 383.47,398.82 384.96,398.02 C388.17,396.31 389.00,396.85 389.00,400.64 L 389.00 404.27 L 384.52 403.66 C379.89,403.02 364.26,398.31 362.50,397.01 C361.95,396.61 360.15,395.95 358.50,395.56 C356.85,395.17 354.74,394.16 353.81,393.32 C352.89,392.49 351.66,392.09 351.10,392.44 C350.53,392.79 349.16,392.16 348.04,391.04 C346.92,389.92 345.30,389.00 344.43,389.00 C343.57,389.00 341.95,388.51 340.83,387.91 C338.83,386.84 338.84,386.77 341.46,384.04 C343.75,381.65 343.89,381.17 342.48,380.63 C340.28,379.79 338.97,379.83 339.12,380.75 C339.33,382.08 338.99,383.47 338.11,384.85 C337.42,385.94 336.30,385.68 332.38,383.50 C329.69,382.02 326.83,380.26 326.00,379.59 C325.17,378.93 323.26,377.86 321.75,377.21 C320.24,376.57 319.00,375.58 319.00,375.02 C319.00,374.46 318.59,374.00 318.09,374.00 C316.81,374.00 309.00,368.80 309.00,367.94 C309.00,366.52 312.02,364.79 313.51,365.37 C314.63,365.80 314.87,366.71 314.37,368.73 C313.73,371.39 313.78,371.43 315.60,369.83 C317.18,368.43 317.79,368.37 319.25,369.44 C320.21,370.14 321.00,371.23 321.00,371.85 C321.00,372.47 322.01,372.87 323.25,372.74 C325.15,372.54 325.46,372.92 325.21,375.25 C324.88,378.41 325.59,378.68 328.15,376.36 C330.60,374.15 333.40,376.26 332.55,379.68 C331.84,382.49 332.45,382.58 335.59,380.11 L 337.99 378.22 L 335.53 376.61 C334.18,375.72 332.84,375.00 332.56,375.00 C332.28,375.00 327.01,371.54 320.84,367.30 C314.68,363.07 309.89,360.27 310.20,361.09 C310.51,361.90 309.88,363.67 308.78,365.02 L 306.80 367.47 L 304.99 365.23 C303.99,364.01 302.79,363.00 302.31,363.00 C300.89,363.00 277.00,339.25 277.00,337.83 C277.00,337.47 278.85,336.86 281.11,336.48 C284.74,335.87 285.04,335.62 283.73,334.30 C282.42,332.99 281.87,333.01 279.01,334.50 C277.23,335.42 275.46,335.79 275.08,335.34 C272.17,331.82 269.00,326.93 269.00,325.98 C269.00,325.34 268.03,324.03 266.84,323.07 C264.17,320.91 265.16,319.00 268.94,319.00 C272.41,319.00 273.65,315.80 271.16,313.30 C270.25,312.38 269.46,311.15 269.40,310.57 C269.35,309.98 269.06,308.83 268.75,308.00 C264.48,296.45 263.14,277.82 266.02,269.95 C266.98,267.32 268.47,264.17 269.33,262.93 C271.33,260.08 269.79,256.10 267.44,258.05 C266.66,258.70 266.27,259.63 266.57,260.11 C267.66,261.87 265.94,263.04 263.89,261.94 C262.79,261.35 261.13,261.04 260.20,261.24 C258.94,261.51 259.34,262.04 261.75,263.33 C264.81,264.95 266.45,267.76 263.75,266.74 C263.06,266.49 261.49,265.96 260.25,265.57 C257.13,264.59 257.34,266.74 260.50,268.18 C263.61,269.60 263.73,270.99 260.75,271.02 L 258.50 271.04 L 261.00 273.05 L 263.50 275.05 L 260.00 274.77 C255.63,274.43 254.94,276.23 259.03,277.29 C262.88,278.29 262.10,279.82 258.04,279.22 C256.37,278.97 255.00,279.23 255.00,279.78 C255.00,280.98 257.84,282.22 258.98,281.51 C259.41,281.24 260.33,281.69 261.01,282.51 C262.07,283.78 261.71,284.00 258.56,284.00 C254.30,284.00 254.56,285.46 258.98,286.35 C263.17,287.18 262.76,288.81 258.25,289.23 C254.44,289.59 255.09,290.30 260.25,291.44 C264.25,292.31 263.62,294.00 259.30,294.00 C255.48,294.00 255.64,295.65 259.52,296.25 C262.64,296.74 264.19,298.07 263.55,299.73 C263.23,300.57 263.49,301.88 264.13,302.65 C265.61,304.44 265.25,304.74 261.00,305.15 C257.70,305.48 257.48,305.32 257.19,302.25 C257.01,300.46 256.48,299.00 256.01,299.00 C254.27,299.00 252.76,287.40 253.21,277.43 C253.60,268.71 254.09,266.40 256.85,260.52 C260.47,252.77 260.36,250.98 256.61,256.66 C250.03,266.64 248.24,282.37 251.97,297.52 C256.73,316.89 269.41,338.37 285.65,354.58 C328.36,397.22 393.38,419.99 443.87,409.97 ZM 524.83 367.39 C531.22,359.64 532.61,354.00 528.12,354.00 C526.10,354.00 521.43,359.24 518.72,364.53 C517.65,366.64 517.47,368.09 518.14,369.28 C519.61,371.91 521.56,371.36 524.83,367.39 ZM 493.37 364.75 C494.30,361.28 494.08,353.67 493.00,352.00 C492.30,350.92 492.03,351.95 492.02,355.62 C492.01,358.44 491.72,362.16 491.38,363.88 C490.66,367.47 492.43,368.25 493.37,364.75 ZM 489.00 364.14 C489.00,363.66 487.31,362.55 485.25,361.68 L 481.50 360.08 L 485.00 360.29 C489.57,360.56 490.42,358.86 486.25,357.78 C481.76,356.62 481.98,354.59 486.50,355.43 C490.84,356.25 491.15,354.60 486.92,353.12 C483.04,351.77 484.03,349.86 488.19,350.69 C492.29,351.51 491.14,349.41 486.99,348.50 C483.02,347.63 483.03,345.56 487.00,346.35 C489.25,346.80 490.00,346.58 490.00,345.48 C490.00,344.66 489.14,344.00 488.08,344.00 C485.37,344.00 483.00,342.96 483.00,341.78 C483.00,341.23 484.35,340.97 486.00,341.21 C488.05,341.51 489.00,341.23 489.00,340.33 C489.00,339.59 487.92,339.00 486.56,339.00 C483.87,339.00 481.95,337.07 484.44,336.88 C487.61,336.62 488.01,336.48 488.25,335.50 C488.39,334.95 487.30,334.36 485.82,334.19 C484.35,334.02 482.58,333.20 481.90,332.38 C480.83,331.09 481.05,330.91 483.47,331.18 C485.08,331.36 486.48,330.96 486.73,330.25 C487.03,329.38 485.89,329.00 482.97,329.00 L 478.77 329.00 L 479.63 334.75 C480.11,337.91 480.48,345.51 480.45,351.63 C480.40,362.64 480.43,362.76 482.95,363.77 C486.22,365.07 489.00,365.24 489.00,364.14 ZM 411.37 358.97 L 413.96 355.89 L 408.03 344.70 C404.76,338.54 401.44,333.08 400.64,332.57 C399.13,331.59 386.08,336.70 386.03,338.29 C386.01,338.72 386.92,340.88 388.04,343.07 C390.22,347.34 389.96,349.00 387.11,349.00 C385.07,349.00 385.60,349.99 374.93,326.50 C370.43,316.60 365.13,305.35 363.15,301.50 C356.38,288.31 356.50,289.00 361.00,289.00 C364.70,289.00 365.02,289.25 367.01,293.75 C368.16,296.36 369.80,299.56 370.64,300.86 L 372.19 303.21 L 375.68 299.86 C377.60,298.01 380.06,295.27 381.15,293.76 L 383.13 291.02 L 379.97 285.09 C375.49,276.68 371.36,275.00 355.25,275.00 L 343.38 275.00 L 341.19 277.96 C339.98,279.59 339.00,281.65 339.00,282.54 C339.00,283.43 341.95,290.48 345.56,298.20 C349.17,305.93 351.88,312.86 351.59,313.62 C351.30,314.38 350.12,315.00 348.96,315.00 C347.27,315.00 346.93,315.52 347.18,317.75 C347.45,320.08 348.14,320.64 351.68,321.43 C355.49,322.27 356.03,322.80 357.87,327.43 C365.77,347.34 369.84,355.29 373.14,357.28 C374.99,358.40 377.62,360.03 379.00,360.90 C381.73,362.64 404.08,364.13 407.14,362.77 C408.05,362.37 409.95,360.66 411.37,358.97 ZM 543.31 343.75 C550.83,334.47 552.06,327.85 547.11,323.44 C542.06,318.94 533.57,313.93 531.50,314.22 C527.56,314.77 529.24,318.27 535.50,322.53 C540.96,326.25 541.53,326.97 541.80,330.59 C542.03,333.73 541.45,335.46 539.05,338.78 C536.12,342.82 535.26,345.92 536.67,347.33 C538.15,348.81 540.03,347.79 543.31,343.75 ZM 523.00 307.55 C523.00,304.65 512.10,297.36 509.34,298.42 C506.43,299.54 508.41,303.38 513.88,307.19 C518.16,310.17 519.63,310.73 521.13,309.93 C522.16,309.38 523.00,308.31 523.00,307.55 ZM 444.52 302.57 C447.05,300.39 447.20,299.94 445.93,298.37 C444.90,297.11 444.87,296.84 445.81,297.41 C446.53,297.84 447.53,299.27 448.03,300.58 C448.63,302.15 449.46,302.76 450.47,302.37 C452.95,301.42 452.24,299.49 448.43,296.78 C445.30,294.55 444.37,294.35 440.82,295.15 C436.60,296.10 433.00,295.54 433.00,293.93 C433.00,293.42 434.06,293.00 435.35,293.00 C438.20,293.00 441.46,289.65 440.65,287.54 C440.33,286.70 438.03,285.02 435.54,283.81 C430.00,281.12 426.07,282.02 424.55,286.34 C423.66,288.86 423.91,289.44 427.03,292.05 C432.62,296.73 435.04,299.32 436.60,302.25 C438.39,305.64 440.83,305.74 444.52,302.57 ZM 501.00 291.47 C501.00,289.77 492.56,283.29 489.14,282.36 C486.86,281.75 485.05,283.13 485.02,285.50 C485.01,286.05 487.77,288.39 491.15,290.71 C496.04,294.06 497.67,294.71 499.15,293.92 C500.17,293.38 501.00,292.27 501.00,291.47 ZM 291.16 285.67 C291.21,283.10 291.65,281.00 292.14,281.00 C292.62,281.00 294.24,278.52 295.72,275.50 C297.20,272.48 298.97,270.00 299.65,270.00 C300.33,270.00 302.15,268.91 303.69,267.57 L 306.50 265.14 L 302.51 261.03 C297.86,256.25 295.12,255.29 290.98,257.01 C287.33,258.52 287.26,259.39 290.57,261.70 C295.92,265.44 298.48,267.85 297.80,268.53 C297.42,268.91 295.90,268.28 294.42,267.11 C290.48,264.01 289.18,264.54 292.42,267.92 C296.68,272.36 294.70,273.58 289.29,269.85 C285.02,266.91 284.82,266.60 286.54,265.35 C288.25,264.09 288.26,264.00 286.63,264.00 C284.36,264.00 281.00,265.80 281.00,267.01 C281.00,267.53 282.69,268.85 284.75,269.95 C290.32,272.89 293.38,275.58 292.60,276.84 C292.17,277.53 291.26,277.64 290.20,277.11 C286.59,275.32 282.41,274.41 280.23,274.94 C278.16,275.45 278.45,275.88 283.53,279.85 C289.62,284.60 290.55,287.72 285.71,287.21 C284.22,287.05 283.00,287.39 283.00,287.96 C283.00,289.31 289.26,291.95 290.28,291.04 C290.71,290.65 291.11,288.23 291.16,285.67 ZM 448.00 287.68 C448.00,286.95 444.20,283.12 439.55,279.16 C409.16,253.28 360.28,235.87 324.99,238.35 C314.34,239.09 299.01,242.93 290.78,246.90 C283.85,250.25 275.00,257.36 275.00,259.58 C275.00,261.89 276.36,261.24 280.55,256.91 C285.77,251.51 296.18,246.35 307.80,243.40 C315.43,241.46 319.94,240.99 331.37,240.93 C349.66,240.82 359.77,242.43 379.00,248.49 C400.78,255.36 426.36,269.90 443.00,284.87 C448.17,289.51 448.00,289.42 448.00,287.68 ZM 281.00 287.16 C281.00,286.70 279.81,285.78 278.35,285.11 C275.55,283.84 273.21,284.91 274.45,286.91 C275.23,288.18 281.00,288.40 281.00,287.16 ZM 423.08 282.38 C425.49,279.76 425.49,279.75 423.26,280.44 C421.11,281.10 421.05,280.94 421.64,276.58 C422.41,270.99 420.20,269.34 417.03,273.14 C414.58,276.08 414.50,277.17 416.75,276.79 C418.12,276.56 418.54,277.27 418.66,280.00 C418.75,281.92 418.87,283.84 418.91,284.25 C419.08,285.69 420.67,284.98 423.08,282.38 ZM 449.13 276.73 C448.58,276.18 447.36,276.27 446.04,276.98 C444.28,277.92 444.10,278.42 445.08,279.59 C446.13,280.86 446.53,280.83 448.17,279.35 C449.31,278.32 449.69,277.29 449.13,276.73 ZM 475.95 272.43 C474.60,270.99 471.53,268.65 469.11,267.23 C464.97,264.80 464.66,264.75 463.43,266.42 C461.56,268.98 462.52,270.50 468.84,274.98 C474.43,278.95 474.48,278.96 476.43,277.01 C478.38,275.06 478.38,275.03 475.95,272.43 ZM 410.00 275.94 C410.00,275.42 409.04,275.00 407.88,275.00 C406.11,275.00 405.96,275.25 406.99,276.49 C408.24,277.99 410.00,277.67 410.00,275.94 ZM 405.58 270.00 C405.83,270.00 406.93,270.56 408.04,271.25 C409.69,272.27 410.22,272.24 410.92,271.12 C411.39,270.36 412.19,270.00 412.69,270.31 C413.99,271.11 416.38,269.42 415.63,268.22 C414.64,266.61 406.96,262.91 405.93,263.54 C405.42,263.86 405.00,264.73 405.00,265.48 C405.00,266.23 403.84,268.23 402.41,269.92 L 399.82 273.00 L 402.16 273.87 C404.17,274.62 404.54,274.41 404.82,272.37 C404.99,271.07 405.33,270.00 405.58,270.00 ZM 437.35 267.76 C437.09,267.34 435.81,267.79 434.49,268.75 C432.31,270.34 432.25,270.61 433.76,271.76 C435.16,272.83 435.60,272.67 436.62,270.77 C437.28,269.54 437.61,268.18 437.35,267.76 ZM 392.00 265.95 C392.00,264.82 392.72,262.51 393.59,260.82 C394.91,258.27 394.96,257.59 393.84,256.88 C391.73,255.54 391.00,255.84 391.00,258.05 C391.00,259.18 390.31,261.44 389.46,263.08 C387.82,266.25 388.21,268.00 390.56,268.00 C391.35,268.00 392.00,267.08 392.00,265.95 ZM 431.56 266.58 C432.62,265.80 433.16,264.83 432.75,264.41 C431.78,263.44 426.90,266.03 427.59,267.15 C428.34,268.35 429.33,268.21 431.56,266.58 ZM 426.00 264.08 C426.00,263.58 426.27,262.45 426.61,261.58 C426.99,260.58 426.67,260.00 425.73,260.00 C423.80,260.00 421.64,262.62 422.47,263.96 C423.27,265.24 426.00,265.34 426.00,264.08 ZM 379.85 257.82 C380.79,253.76 380.78,252.48 379.82,251.89 C378.03,250.78 377.00,251.78 377.00,254.62 C377.00,256.00 376.53,258.01 375.95,259.09 C374.80,261.25 375.44,263.00 377.39,263.00 C378.10,263.00 379.18,260.71 379.85,257.82 ZM 370.14 254.52 C367.56,248.17 365.00,245.95 365.00,250.06 C365.00,251.20 363.65,253.27 362.00,254.66 C360.35,256.05 359.25,257.59 359.56,258.09 C360.48,259.59 364.00,259.12 364.00,257.50 C364.00,255.10 366.96,255.77 367.96,258.40 C368.84,260.71 370.81,262.11 372.14,261.37 C372.50,261.18 371.60,258.09 370.14,254.52 ZM 452.80 260.80 C454.81,258.79 454.16,256.63 450.75,253.91 C443.74,248.33 440.00,247.78 440.00,252.33 C440.00,254.07 441.40,255.70 445.20,258.36 C451.03,262.44 451.13,262.47 452.80,260.80 ZM 319.46 259.07 C319.77,258.56 319.58,257.86 319.02,257.51 C318.46,257.16 318.00,256.16 318.00,255.27 C318.00,253.96 318.47,254.09 320.43,255.93 C321.76,257.18 323.37,257.89 324.00,257.50 C324.78,257.02 324.53,256.36 323.21,255.44 C322.15,254.69 320.73,252.76 320.06,251.14 C318.78,248.06 315.29,246.84 310.40,247.77 C307.83,248.27 307.03,251.00 309.45,251.00 C311.02,251.00 316.00,256.96 316.00,258.84 C316.00,260.22 318.64,260.40 319.46,259.07 ZM 343.06 255.90 C344.13,253.88 344.01,253.82 340.20,254.47 C336.76,255.05 335.99,254.83 334.61,252.85 C333.72,251.59 333.00,249.53 333.00,248.28 C333.00,246.92 332.39,246.00 331.50,246.00 C329.42,246.00 329.59,250.95 331.77,253.62 C335.54,258.24 341.19,259.38 343.06,255.90 ZM 357.18 257.00 C357.22,256.73 356.93,254.14 356.53,251.25 C355.88,246.49 355.58,246.00 353.28,246.00 C351.25,246.00 350.98,246.27 351.89,247.37 C352.52,248.13 352.77,249.43 352.45,250.27 C352.13,251.11 352.34,252.09 352.93,252.46 C353.52,252.82 354.00,254.25 354.00,255.63 C354.00,257.38 354.48,258.05 355.55,257.82 C356.41,257.65 357.14,257.27 357.18,257.00 ZM 349.00 254.47 C349.00,251.27 346.42,245.00 345.11,245.00 C343.66,245.00 342.81,246.76 343.93,247.45 C344.45,247.78 345.19,250.06 345.56,252.52 C346.29,257.41 349.00,258.94 349.00,254.47 ZM 408.21 249.36 C405.82,247.54 404.67,247.69 403.23,250.01 C402.11,251.79 402.33,252.23 405.23,254.00 L 408.50 255.98 L 409.21 253.32 C409.73,251.38 409.46,250.31 408.21,249.36 ZM 399.30 248.25 C399.59,246.74 399.63,245.30 399.38,245.06 C398.53,244.19 394.77,248.81 395.44,249.90 C396.69,251.92 398.76,251.03 399.30,248.25 ZM 393.00 245.00 C393.00,241.41 392.42,241.26 390.00,244.24 C387.93,246.81 388.26,248.00 391.06,248.00 C392.55,248.00 393.00,247.30 393.00,245.00 ZM 385.71 243.63 C385.50,243.01 384.70,242.46 383.92,242.41 C380.15,242.14 379.88,241.95 380.50,240.00 C380.95,238.58 380.68,238.00 379.57,238.00 C378.71,238.00 378.00,238.68 378.00,239.50 C378.00,241.37 375.62,241.46 374.12,239.64 C373.47,238.87 371.91,238.49 370.49,238.76 C368.35,239.17 368.00,238.87 368.00,236.62 C368.00,235.18 367.55,234.00 367.00,234.00 C366.45,234.00 366.00,234.69 366.00,235.53 C366.00,236.37 365.00,237.43 363.79,237.88 C361.63,238.68 361.63,238.73 363.54,239.74 C364.62,240.32 367.08,241.01 369.00,241.28 C370.92,241.55 374.98,242.65 378.00,243.73 C383.57,245.71 386.39,245.68 385.71,243.63 ZM 430.80 244.80 C432.94,242.66 432.09,241.01 427.32,237.99 C418.65,232.49 413.04,233.16 409.44,240.12 C407.38,244.10 408.81,245.95 412.14,243.62 C415.27,241.42 421.83,241.58 425.50,243.93 C429.16,246.27 429.30,246.30 430.80,244.80 ZM 351.88 237.09 C352.97,236.40 352.83,236.08 351.20,235.56 C350.06,235.20 348.99,233.95 348.81,232.78 C348.35,229.61 346.00,229.31 346.00,232.42 C346.00,235.59 343.28,235.95 342.82,232.83 C342.40,229.96 340.00,229.19 340.00,231.92 C340.00,234.81 338.35,234.53 337.59,231.50 C337.24,230.12 336.52,229.00 335.98,229.00 C335.44,229.00 335.00,230.12 335.00,231.50 C335.00,234.40 333.56,234.77 332.05,232.25 C331.05,230.58 330.95,230.58 329.95,232.25 C328.49,234.68 327.16,234.44 325.82,231.50 C325.19,230.12 324.07,229.00 323.32,229.00 C322.37,229.00 322.15,229.75 322.59,231.50 C323.41,234.76 320.55,234.99 319.51,231.75 C318.82,229.61 318.76,229.60 318.29,231.50 C318.01,232.60 317.39,233.99 316.90,234.59 C315.30,236.57 317.19,236.96 325.90,236.44 C330.63,236.16 337.65,236.33 341.50,236.83 C345.35,237.33 348.95,237.79 349.50,237.85 C350.05,237.92 351.12,237.58 351.88,237.09 ZM 427.24 407.23 C425.98,407.02 425.26,406.39 425.61,405.82 C425.97,405.24 425.69,404.43 425.00,404.00 C424.31,403.57 424.05,402.72 424.43,402.11 C425.34,400.64 428.00,400.68 428.00,402.17 C428.00,402.82 428.70,404.12 429.57,405.07 C431.34,407.03 430.54,407.77 427.24,407.23 ZM 397.63 406.30 C397.24,405.91 395.70,405.57 394.21,405.55 C391.89,405.51 391.45,405.03 391.19,402.25 C390.91,399.35 391.15,399.00 393.44,399.00 C395.50,399.00 396.00,399.48 396.00,401.50 C396.00,402.88 396.45,404.00 397.00,404.00 C397.55,404.00 398.00,403.35 398.00,402.56 C398.00,400.67 399.43,399.84 401.41,400.60 C403.47,401.39 403.47,405.60 401.42,406.39 C399.36,407.18 398.49,407.16 397.63,406.30 ZM 413.45 406.09 C413.76,405.58 413.45,404.98 412.76,404.75 C411.77,404.42 411.80,403.97 412.87,402.66 C414.86,400.26 415.71,400.60 416.21,404.00 C416.57,406.43 416.29,407.00 414.77,407.00 C413.73,407.00 413.14,406.59 413.45,406.09 ZM 419.63 404.75 C418.74,401.44 418.85,401.00 420.50,401.00 C421.33,401.00 422.00,401.64 422.00,402.42 C422.00,403.20 422.27,404.55 422.61,405.42 C422.99,406.42 422.67,407.00 421.72,407.00 C420.90,407.00 419.96,405.99 419.63,404.75 ZM 266.08 317.05 C261.28,316.28 260.81,314.00 265.45,314.00 C267.78,314.00 269.27,314.55 269.65,315.54 C270.43,317.57 270.13,317.69 266.08,317.05 ZM 259.67 310.33 C258.12,308.79 259.25,308.00 263.00,308.00 C265.89,308.00 267.00,308.42 267.00,309.50 C267.00,310.53 265.96,311.00 263.67,311.00 C261.83,311.00 260.03,310.70 259.67,310.33 ZM 427.59 289.37 C426.87,287.50 429.73,284.96 431.71,285.72 C433.41,286.37 433.35,286.65 431.00,289.00 C428.58,291.42 428.38,291.44 427.59,289.37 ZM 435.73 290.40 C435.33,289.99 435.00,288.98 435.00,288.13 C435.00,287.01 435.30,286.90 436.11,287.71 C436.72,288.32 437.05,289.34 436.84,289.98 C436.63,290.61 436.13,290.80 435.73,290.40 ZM 296.45 262.92 L 292.50 258.85 L 295.40 259.17 C298.76,259.55 303.01,264.39 301.40,266.00 C300.74,266.66 299.07,265.63 296.45,262.92 Z" fill="rgb(252,252,252)"/>
</g>
</svg>