<?xml version="1.0" encoding="utf-8" ?>
<svg baseProfile="full" height="1024" version="1.1" viewBox="0 0 1024 1024" width="1024" xmlns="http://www.w3.org/2000/svg" xmlns:ev="http://www.w3.org/2001/xml-events" xmlns:xlink="http://www.w3.org/1999/xlink"><defs /><g fill-rule="evenodd"><path d="M 564 709 L 553 698 L 522 729 L 493 700 L 491 700 L 481 711 L 522 751 Z" fill="white" stroke="none" /><path d="M 521 682 L 510 695 L 522 706 L 533 694 Z" fill="white" stroke="none" /><path d="M 481 654 L 442 692 L 462 711 L 500 673 Z" fill="white" stroke="none" /><path d="M 569 647 L 550 667 L 587 703 L 607 684 Z" fill="white" stroke="none" /><path d="M 458 631 L 420 669 L 420 671 L 429 679 L 468 641 Z" fill="white" stroke="none" /><path d="M 590 626 L 581 635 L 620 672 L 629 663 Z" fill="white" stroke="none" /><path d="M 295 647 L 223 666 L 221 620 L 179 632 L 125 645 L 125 652 L 214 629 L 215 674 L 218 674 L 294 654 Z" fill="white" stroke="none" /><path d="M 402 617 L 368 626 L 381 638 Z" fill="white" stroke="none" /><path d="M 434 609 L 393 650 L 404 660 L 445 620 Z" fill="white" stroke="none" /><path d="M 608 608 L 601 616 L 629 644 L 640 653 L 647 646 Z" fill="white" stroke="none" /><path d="M 222 596 L 125 621 L 125 627 L 222 602 Z" fill="white" stroke="none" /><path d="M 639 575 L 620 594 L 651 625 L 661 633 L 680 613 Z" fill="white" stroke="none" /><path d="M 565 574 L 491 594 L 521 622 Z" fill="white" stroke="none" /><path d="M 222 574 L 126 598 L 125 605 L 222 580 Z" fill="white" stroke="none" /><path d="M 297 569 L 282 578 L 277 578 L 277 603 L 262 609 L 261 557 L 250 558 L 241 562 L 240 624 L 250 635 L 288 625 L 291 618 L 297 611 Z" fill="white" stroke="none" /><path d="M 636 556 L 603 564 L 522 645 L 516 641 L 472 599 L 452 604 L 521 670 Z" fill="white" stroke="none" /><path d="M 222 551 L 125 576 L 125 582 L 218 559 L 222 557 Z" fill="white" stroke="none" /><path d="M 660 552 L 652 561 L 699 606 L 699 584 L 664 550 Z" fill="white" stroke="none" /><path d="M 676 545 L 699 567 L 699 539 Z" fill="white" stroke="none" /><path d="M 222 529 L 125 554 L 125 560 L 222 535 Z" fill="white" stroke="none" /><path d="M 748 527 L 716 535 L 716 611 L 520 785 L 344 632 L 305 642 L 305 646 L 520 831 L 748 631 Z" fill="white" stroke="none" /><path d="M 288 470 L 271 476 L 250 480 L 243 490 L 240 492 L 241 550 L 232 558 L 232 560 L 237 560 L 247 554 L 261 552 L 261 501 L 263 499 L 276 496 L 278 497 L 277 520 L 296 505 L 296 477 L 292 476 L 288 472 Z" fill="white" stroke="none" /><path d="M 329 460 L 311 465 L 301 466 L 307 471 L 307 532 L 300 536 L 299 539 L 307 539 L 314 537 L 316 538 L 307 545 L 307 617 L 305 622 L 309 619 L 331 612 L 357 607 L 357 578 L 340 587 L 329 591 L 326 590 L 326 466 Z" fill="white" stroke="none" /><path d="M 912 445 L 825 466 L 824 509 L 760 526 L 760 533 L 831 515 L 831 473 L 833 471 L 911 452 L 913 448 Z" fill="white" stroke="none" /><path d="M 278 443 L 216 458 L 215 503 L 213 505 L 125 527 L 125 534 L 221 510 L 222 464 L 278 450 Z" fill="white" stroke="none" /><path d="M 421 435 L 397 441 L 401 445 L 400 570 L 387 575 L 385 574 L 386 444 L 370 449 L 360 450 L 366 458 L 366 519 L 358 526 L 370 527 L 366 530 L 365 589 L 376 600 L 410 592 L 414 583 L 419 577 L 419 460 Z" fill="white" stroke="none" /><path d="M 485 419 L 445 431 L 427 434 L 429 442 L 429 457 L 427 465 L 432 459 L 444 452 L 448 453 L 447 495 L 440 499 L 441 501 L 451 502 L 447 505 L 446 577 L 442 584 L 452 580 L 469 577 L 466 571 L 466 497 L 472 493 L 469 492 L 466 488 L 466 447 L 470 445 L 483 446 L 482 428 Z" fill="white" stroke="none" /><path d="M 912 418 L 824 441 L 824 447 L 912 425 Z" fill="white" stroke="none" /><path d="M 534 407 L 501 415 L 491 428 L 491 485 L 485 488 L 484 490 L 497 491 L 493 493 L 491 496 L 490 557 L 502 568 L 517 563 L 529 561 L 541 555 L 542 506 L 525 515 L 525 538 L 511 543 L 510 542 L 510 436 L 512 434 L 524 431 L 526 432 L 525 454 L 542 441 L 542 414 Z" fill="white" stroke="none" /><path d="M 912 396 L 824 419 L 824 425 L 912 403 Z" fill="white" stroke="none" /><path d="M 912 374 L 824 396 L 824 403 L 912 380 Z" fill="white" stroke="none" /><path d="M 662 374 L 631 383 L 610 386 L 618 393 L 619 448 L 608 453 L 605 452 L 607 388 L 584 393 L 587 397 L 587 457 L 572 463 L 570 462 L 569 405 L 571 397 L 546 403 L 552 409 L 552 468 L 543 474 L 547 476 L 557 476 L 552 481 L 552 547 L 551 553 L 548 558 L 553 555 L 572 550 L 570 548 L 570 486 L 585 479 L 587 480 L 587 542 L 585 547 L 606 540 L 605 466 L 608 461 L 619 453 L 629 449 L 636 448 L 636 407 L 638 403 L 652 399 L 654 400 L 654 444 L 656 445 L 654 446 L 654 504 L 651 506 L 638 509 L 636 508 L 637 453 L 627 455 L 619 461 L 618 531 L 613 540 L 635 532 L 662 525 L 666 517 L 672 510 L 670 444 L 672 414 L 672 383 L 670 383 Z" fill="white" stroke="none" /><path d="M 456 405 L 426 365 L 422 363 L 413 372 L 434 399 L 431 399 L 409 383 L 406 383 L 357 430 Z" fill="white" stroke="none" /><path d="M 734 356 L 706 364 L 678 369 L 683 376 L 684 433 L 678 437 L 674 442 L 682 442 L 688 439 L 692 440 L 683 446 L 683 516 L 680 523 L 685 520 L 701 515 L 733 508 L 733 478 L 727 484 L 705 491 L 701 490 L 701 455 L 703 452 L 720 444 L 721 435 L 726 418 L 713 424 L 706 426 L 702 425 L 702 390 L 725 383 L 733 383 L 732 363 Z" fill="white" stroke="none" /><path d="M 912 351 L 824 374 L 824 380 L 912 358 Z" fill="white" stroke="none" /><path d="M 807 337 L 781 343 L 785 348 L 784 423 L 765 360 L 763 349 L 738 354 L 744 361 L 744 417 L 737 422 L 737 425 L 744 423 L 747 424 L 744 426 L 744 499 L 740 508 L 753 502 L 766 500 L 762 494 L 763 423 L 769 436 L 786 495 L 806 489 L 805 418 L 800 414 L 809 412 L 811 410 L 805 409 L 805 341 Z" fill="white" stroke="none" /><path d="M 351 329 L 350 350 L 368 365 L 377 375 L 343 406 L 343 426 L 399 373 Z" fill="white" stroke="none" /><path d="M 367 328 L 404 363 L 407 362 L 416 353 L 395 328 Z" fill="white" stroke="none" /><path d="M 662 352 L 653 343 L 633 356 L 632 354 L 646 337 L 637 328 L 634 327 L 603 367 Z" fill="white" stroke="none" /><path d="M 696 309 L 664 337 L 674 349 L 689 346 L 686 341 L 696 332 Z" fill="white" stroke="none" /><path d="M 643 318 L 655 329 L 680 306 L 652 306 Z" fill="white" stroke="none" /><path d="M 760 320 L 760 327 L 823 311 L 824 358 L 910 336 L 913 332 L 913 329 L 909 329 L 832 349 L 831 303 Z" fill="white" stroke="none" /><path d="M 519 303 L 457 368 L 487 397 L 565 377 L 579 366 L 543 330 Z" fill="white" stroke="none" /><path d="M 449 283 L 444 292 L 426 308 L 426 320 L 444 337 L 452 348 L 469 328 L 474 317 L 457 300 L 451 290 Z" fill="white" stroke="none" /><path d="M 588 281 L 588 284 L 583 294 L 564 317 L 567 326 L 583 348 L 590 339 L 607 322 L 610 321 L 611 307 L 606 304 L 594 292 Z" fill="white" stroke="none" /><path d="M 594 260 L 625 291 L 714 291 L 716 293 L 716 338 L 748 330 L 748 261 Z" fill="white" stroke="none" /><path d="M 446 260 L 289 260 L 289 448 L 321 440 L 321 292 L 417 291 L 447 261 Z" fill="white" stroke="none" /><path d="M 496 210 L 481 230 L 499 218 Z" fill="white" stroke="none" /><path d="M 591 209 L 572 233 L 561 244 L 547 253 L 524 288 L 524 290 L 543 308 L 545 308 L 563 289 L 568 281 L 570 264 L 577 244 L 585 228 Z" fill="white" stroke="none" /><path d="M 559 209 L 548 235 L 559 226 Z" fill="white" stroke="none" /><path d="M 543 207 L 517 228 L 497 240 L 482 256 L 471 271 L 467 280 L 467 284 L 484 303 L 492 302 L 496 299 L 527 243 Z" fill="white" stroke="none" /></g></svg>