<svg xmlns="http://www.w3.org/2000/svg" x="0px" y="0px" width="100" height="100" viewBox="0 0 100 100">
<path d="M 49.208984 6.7910156 C 48.398206 6.7718264 47.57875 6.7745477 46.753906 6.8027344 C 33.45566 7.2571634 24.446564 15.966235 20.525391 20.423828 C 18.250455 23.009977 16.918188 28.208914 15.919922 32.908203 C 14.921656 37.607492 14.410156 41.748047 14.410156 41.748047 A 1.0001 1.0001 0 0 0 14.425781 42.083984 C 14.425781 42.083984 15.556625 47.265532 16.890625 52.767578 C 17.557625 55.518601 18.27547 58.34952 18.931641 60.666016 C 19.259726 61.824263 19.571934 62.853706 19.859375 63.689453 C 20.146816 64.5252 20.376573 65.135716 20.6875 65.623047 C 21.625833 67.094325 23.525296 68.999634 25.242188 70.648438 C 26.171591 71.540982 26.890788 72.200926 27.4375 72.695312 C 27.783497 73.054458 28.096588 73.389457 28.3125 73.611328 L 30.896484 81.900391 A 1.0001 1.0001 0 0 0 31.357422 82.470703 C 31.357422 82.470703 33.404461 83.636873 35.910156 84.957031 C 38.415852 86.277189 41.342957 87.747681 43.310547 88.40625 C 46.968618 89.630638 60.648437 94.066406 60.648438 94.066406 A 1.0001 1.0001 0 0 0 61.058594 94.111328 L 79.066406 92.277344 A 1.0001 1.0001 0 0 0 79.960938 91.361328 C 79.960938 91.361328 80.263389 87.553088 80.585938 83.550781 C 80.908485 79.548475 81.261368 75.279225 81.335938 74.601562 C 81.346497 74.505003 81.607755 73.511891 82.007812 72.341797 C 82.407871 71.171703 82.945395 69.701047 83.523438 68.164062 C 84.679523 65.090097 85.996789 61.744394 86.71875 59.898438 C 87.552004 57.767918 87.639211 54.872962 87.552734 52.402344 C 87.509494 51.167035 87.413685 50.048176 87.306641 49.208984 C 87.253121 48.789389 87.198021 48.443934 87.140625 48.167969 C 87.111925 48.029986 87.083279 47.912243 87.042969 47.787109 C 87.022809 47.724539 87.001821 47.660919 86.957031 47.570312 C 86.912241 47.479703 86.900431 47.341414 86.568359 47.130859 C 86.845558 47.306619 86.625942 47.166599 86.513672 47.019531 C 86.401405 46.872461 86.258508 46.668531 86.123047 46.46875 C 85.952095 46.216626 85.893075 46.121812 85.798828 45.974609 L 86.537109 39.71875 A 1.0001 1.0001 0 0 0 86.501953 39.316406 C 86.501953 39.316406 85.860719 37.153099 85.027344 34.619141 C 84.193969 32.085183 83.197285 29.219972 82.363281 27.605469 C 81.568431 26.06676 79.823501 23.14982 78.046875 20.369141 C 77.158562 18.978801 76.265232 17.630123 75.484375 16.519531 C 74.703518 15.40894 74.077572 14.565467 73.535156 14.042969 C 72.925005 13.455222 71.899628 12.839819 70.341797 12.056641 C 68.783966 11.273462 66.747062 10.394141 64.353516 9.5800781 C 60.164815 8.1554694 54.884434 6.9253405 49.208984 6.7910156 z M 45.253906 9.2246094 C 52.273396 11.950711 58.957031 19.828125 58.957031 19.828125 A 1.0001 1.0001 0 0 0 59.617188 20.181641 L 72.773438 21.619141 A 1.0001 1.0001 0 0 0 73.873047 20.484375 L 73.380859 17.035156 C 73.540305 17.251769 73.678029 17.425887 73.849609 17.669922 C 74.604565 18.743674 75.484391 20.072777 76.361328 21.445312 C 78.115202 24.190383 79.868787 27.135146 80.585938 28.523438 C 81.263933 29.835933 82.303828 32.741349 83.126953 35.244141 C 83.916122 37.643686 84.475837 39.528907 84.525391 39.695312 L 84.259766 41.943359 C 82.74408 42.016422 78.019531 42.169922 78.019531 42.169922 L 77.628906 43.158203 C 76.284165 42.952024 74.412117 42.686443 71.986328 42.458984 C 70.007183 42.273406 67.904964 42.118039 65.957031 42.138672 C 65.295219 42.145681 64.662397 42.183019 64.046875 42.236328 C 63.484971 41.662635 62.86635 41.097898 62.408203 40.919922 C 61.350203 40.508922 43.769531 38.996094 43.769531 38.996094 L 41.892578 44.720703 C 41.892578 44.720703 47.057891 48.132609 49.962891 48.099609 C 52.867891 48.067609 63.265625 46.373047 63.265625 46.373047 L 65.03125 44.230469 C 67.073055 44.14029 69.541675 44.237572 71.798828 44.449219 C 74.319097 44.685537 76.20035 44.958296 77.484375 45.158203 L 78.710938 46.714844 L 85.248047 48.992188 C 85.273341 49.148086 85.296311 49.2594 85.322266 49.462891 C 85.420286 50.231324 85.513676 51.300965 85.554688 52.472656 C 85.636707 54.816038 85.464218 57.613442 84.855469 59.169922 C 84.13543 61.010965 82.814305 64.366154 81.650391 67.460938 C 81.068433 69.008329 80.526927 70.489235 80.115234 71.693359 C 80.106618 71.71856 80.102251 71.732959 80.09375 71.757812 C 80.069367 71.751502 80.054819 71.746675 80.029297 71.740234 C 79.627716 71.638893 79.084034 71.521136 78.419922 71.396484 C 77.091698 71.147181 75.288009 70.877228 73.269531 70.71875 C 71.251053 70.560272 69.021623 70.500479 66.835938 70.701172 C 65.224795 70.849111 63.63964 71.141798 62.177734 71.636719 C 61.732452 70.728214 61.291654 69.821209 60.785156 68.851562 C 57.96923 63.460708 54.439464 57.509762 50.695312 55.035156 C 44.093699 50.671982 35.087993 47.500886 34.423828 47.269531 L 40.386719 34.402344 A 1.0001 1.0001 0 0 0 40.429688 33.667969 L 34.9375 16.980469 L 45.060547 9.4121094 A 1.0001 1.0001 0 0 0 45.253906 9.2246094 z M 25.255859 38.138672 C 25.798859 38.240672 26.156688 38.761687 26.054688 39.304688 L 24.097656 49.775391 L 30.771484 59.296875 C 30.935484 59.527875 30.993641 59.814844 30.931641 60.089844 L 30.015625 64.158203 C 29.911625 64.623203 29.497062 64.9375 29.039062 64.9375 C 28.966062 64.9375 28.893359 64.930063 28.818359 64.914062 C 28.279359 64.793063 27.9415 64.25775 28.0625 63.71875 L 28.880859 60.082031 L 22.21875 50.578125 C 22.06475 50.358125 22.005688 50.084313 22.054688 49.820312 L 24.087891 38.9375 C 24.189891 38.3945 24.713859 38.036672 25.255859 38.138672 z M 34.767578 49.529297 C 37.36877 50.497878 44.347425 53.238939 49.591797 56.705078 C 52.524645 58.643473 56.247348 64.481448 59.013672 69.777344 C 59.502891 70.713913 59.927966 71.589328 60.359375 72.46875 A 1.0001 1.0001 0 0 0 60.257812 72.599609 C 57.431764 76.910162 55.440518 79.088251 54.947266 79.617188 L 50.015625 78.166016 L 51.328125 75.794922 A 1.0001 1.0001 0 0 0 51.410156 75.015625 L 47.867188 63.501953 A 1.0001 1.0001 0 0 0 47.476562 62.970703 L 36.832031 55.677734 L 34.767578 49.529297 z M 70.164062 72.589844 C 71.170343 72.59326 72.164573 72.638404 73.113281 72.712891 C 75.047928 72.864787 76.789223 73.124538 78.050781 73.361328 C 78.6592 73.475526 79.143116 73.58203 79.488281 73.667969 C 79.423758 73.922606 79.371669 74.163305 79.347656 74.382812 C 79.308256 74.740872 79.141347 76.849529 79.039062 78.0625 L 65.294922 78.433594 C 65.062011 77.872412 64.360134 76.210964 63.072266 73.480469 C 65.17029 72.826218 67.700218 72.581478 70.164062 72.589844 z M 61.353516 74.523438 C 62.574864 77.124238 63.242809 78.7034 63.458984 79.224609 L 56.894531 85.808594 L 51.298828 83.800781 L 50.101562 80.275391 L 54.998047 81.714844 A 1.0001 1.0001 0 0 0 56 81.451172 C 56 81.451172 58.360068 78.946879 61.353516 74.523438 z M 34.123047 79.017578 C 34.252281 79.031031 34.380953 79.070219 34.501953 79.136719 C 43.236953 83.958719 49.829875 87.323266 61.421875 90.072266 C 61.659875 90.129266 61.848375 90.274031 61.984375 90.457031 L 67.138672 85.638672 L 64.84375 80.667969 L 65.072266 80.439453 L 78.871094 80.068359 C 78.76105 81.408696 78.710773 81.912368 78.591797 83.388672 C 78.303455 86.966522 78.089649 89.682852 78.035156 90.371094 L 61.068359 92.099609 C 61.057272 92.096012 60.49133 91.910782 60.447266 91.896484 L 60.449219 91.894531 C 60.433469 91.890723 60.420028 91.886623 60.404297 91.882812 C 59.33506 91.535884 50.747597 88.742085 46.046875 87.193359 C 41.816001 85.38404 37.940851 83.318715 33.535156 80.886719 C 33.052156 80.619719 32.875578 80.011344 33.142578 79.527344 C 33.342828 79.165094 33.735344 78.977219 34.123047 79.017578 z"></path>
</svg>