<svg xmlns="http://www.w3.org/2000/svg" x="0px" y="0px" width="100" height="100" viewBox="0,0,256,256">
<g fill="#ffffff" fill-rule="nonzero" stroke="none" stroke-width="1" stroke-linecap="butt" stroke-linejoin="miter" stroke-miterlimit="10" stroke-dasharray="" stroke-dashoffset="0" font-family="none" font-weight="none" font-size="none" text-anchor="none" style="mix-blend-mode: normal"><g transform="scale(5.12,5.12)"><path d="M22.5,2c-8.01,0 -14.51953,6.51 -14.51953,14.5c0,1.95 0.38984,3.81953 1.08984,5.51953c0.14,-0.01 0.27969,-0.01953 0.42969,-0.01953h11c0.85,0 1.65914,0.19078 2.36914,0.55078c2,-5.61 7.33086,-9.55078 13.63086,-9.55078h0.08984c-1.58,-6.31 -7.28984,-11 -14.08984,-11zM36.5,15c-5.62,0 -10.35945,3.70078 -11.93945,8.80078c0.79,0.86 1.31016,1.97898 1.41016,3.20898c6.12,0.25 11.0293,5.31023 11.0293,11.49023c0,0.51 -0.02961,1.00023 -0.09961,1.49023c6.72,-0.21 12.09961,-5.72023 12.09961,-12.49023c0,-6.9 -5.6,-12.5 -12.5,-12.5zM9.5,24c-1.933,0 -3.5,1.567 -3.5,3.5v11c0,1.933 1.567,3.5 3.5,3.5h11c1.933,0 3.5,-1.567 3.5,-3.5v-11c0,-1.933 -1.567,-3.5 -3.5,-3.5zM15.39258,27.69727c0.76,0 1.42786,0.15484 2.00586,0.46484c0.578,0.31 1.03795,0.75503 1.37695,1.33203l-1.90625,0.98047c-0.211,-0.324 -0.43864,-0.55817 -0.68164,-0.70117c-0.245,-0.148 -0.54997,-0.2207 -0.91797,-0.2207c-0.44,0 -0.77391,0.09416 -1.00391,0.28516c-0.225,0.191 -0.33594,0.43914 -0.33594,0.74414c0,0.262 0.10726,0.49336 0.32226,0.69336c0.22,0.195 0.65836,0.35647 1.31836,0.48047c1.109,0.21 1.93647,0.59053 2.48047,1.14453c0.549,0.549 0.82227,1.24398 0.82227,2.08398c0,1.021 -0.32547,1.82978 -0.98047,2.42578c-0.654,0.596 -1.58973,0.89453 -2.80273,0.89453c-0.879,0 -1.67191,-0.19222 -2.37891,-0.57422c-0.702,-0.386 -1.22999,-0.92519 -1.58399,-1.61719l1.94922,-1.01367c0.22,0.443 0.50538,0.76852 0.85938,0.97852c0.358,0.21 0.75078,0.31641 1.17578,0.31641c0.473,0 0.83403,-0.09611 1.08203,-0.28711c0.249,-0.196 0.37305,-0.48791 0.37305,-0.87891c0,-0.305 -0.12037,-0.56344 -0.35937,-0.77344c-0.239,-0.215 -0.66058,-0.37633 -1.26758,-0.48633c-1.156,-0.211 -1.99844,-0.57852 -2.52344,-1.10352c-0.521,-0.525 -0.78125,-1.17894 -0.78125,-1.96094c0,-0.973 0.3442,-1.75098 1.0332,-2.33398c0.688,-0.582 1.59661,-0.87305 2.72461,-0.87305zM26,29.00977v9.49023c0,3.03 -2.47,5.5 -5.5,5.5h-2.75c1.72,2.42 4.55,4 7.75,4c5.25,0 9.5,-4.25 9.5,-9.5c0,-5.08 -3.98,-9.23023 -9,-9.49023z"></path></g></g>
</svg>